<?xml version='1.0' encoding='UTF-8' standalone='no'?>
<!-- Created with Fritzing (http://www.fritzing.org/) -->
<svg xmlns="http://www.w3.org/2000/svg" width="3.07231in" height="2.59143in" x="0in" version="1.2" viewBox="0 0 221.206 186.583"  baseProfile="tiny" xmlns:svg="http://www.w3.org/2000/svg" y="0in">
 <g partID="854335990">
  <g transform="translate(22.1234,5.26032)">
   <g transform="matrix(0,1,-1,0,0,0)">
    <g id="board" >
     <rect width="183.676" id="boardoutline" height="84.4634" x="0.288" fill="none" stroke="black" fill-opacity="0.5"  stroke-width="0.5" y="0.288"/>
    </g>
   </g>
  </g>
 </g>
 <g partID="57640">
  <g id="board" />
 </g>
 <g partID="854455600">
  <g transform="translate(59.1104,90.2726)">
   <g transform="matrix(0,1,-1,0,0,0)">
    <g id="copper0" >
     <g id="copper1" >
      <circle id="connector4" r="1.98" cx="2.649" cy="2.714" fill="none" stroke="black"  stroke-width="1.152"/>
      <circle id="connector5" r="1.98" cx="9.85" cy="2.714" fill="none" stroke="black"  stroke-width="1.152"/>
      <circle id="connector6" r="1.979" cx="17.051" cy="2.714" fill="none" stroke="black"  stroke-width="1.152"/>
      <circle id="connector7" r="1.979" cx="24.25" cy="2.714" fill="none" stroke="black"  stroke-width="1.152"/>
     </g>
    </g>
   </g>
  </g>
 </g>
 <g partID="854472930">
  <g transform="translate(173.756,11.5626)">
   <g transform="matrix(0,-1,1,0,0,0)">
    <g id="copper0" >
     <circle id="connector0pin" r="2.088" cx="5.04" cy="5.04" fill="none" stroke="black"  stroke-width="1.44"/>
     <circle id="connector1pin" r="2.088" cx="5.04" cy="12.24" fill="none" stroke="black"  stroke-width="1.44"/>
    </g>
   </g>
  </g>
 </g>
 <g partID="854472900">
  <g transform="translate(65.756,11.5626)">
   <g transform="matrix(0,-1,1,0,0,0)">
    <g id="copper0" >
     <circle id="connector0pin" r="2.088" cx="5.04" cy="5.04" fill="none" stroke="black"  stroke-width="1.44"/>
     <circle id="connector1pin" r="2.088" cx="5.04" cy="12.24" fill="none" stroke="black"  stroke-width="1.44"/>
    </g>
   </g>
  </g>
 </g>
 <g partID="854532690">
  <g transform="translate(88.0893,139.003)">
   <g transform="matrix(-1,0,0,-1,0,0)">
    <g id="copper0" >
     <g id="copper1" >
      <circle id="connector0pin" r="1.8" cx="2.88" cy="2.88" fill="none" stroke="black"  stroke-width="1.44"/>
      <circle id="connector1pin" r="1.8" cx="10.0933" cy="2.88" fill="none" stroke="black"  stroke-width="1.44"/>
     </g>
    </g>
   </g>
  </g>
 </g>
 <g partID="854532670">
  <g transform="translate(88.0893,131.803)">
   <g transform="matrix(-1,0,0,-1,0,0)">
    <g id="copper0" >
     <g id="copper1" >
      <circle id="connector0pin" r="1.8" cx="2.88" cy="2.88" fill="none" stroke="black"  stroke-width="1.44"/>
      <circle id="connector1pin" r="1.8" cx="10.0933" cy="2.88" fill="none" stroke="black"  stroke-width="1.44"/>
     </g>
    </g>
   </g>
  </g>
 </g>
 <g partID="854498880">
  <g transform="translate(102.476,111.629)">
   <g transform="matrix(0,1,-1,0,0,0)">
    <g id="copper0" >
     <g id="copper1" >
      <circle id="connector0pin" r="1.8" cx="2.88" cy="2.88" fill="none" stroke="black"  stroke-width="1.44"/>
      <circle id="connector1pin" r="1.8" cx="10.0933" cy="2.88" fill="none" stroke="black"  stroke-width="1.44"/>
     </g>
    </g>
   </g>
  </g>
 </g>
 <g partID="854474410">
  <g transform="translate(30.476,32.4292)">
   <g transform="matrix(0,1,-1,0,0,0)">
    <g id="copper0" >
     <g id="copper1" >
      <circle id="connector0pin" r="1.8" cx="2.88" cy="2.88" fill="none" stroke="black"  stroke-width="1.44"/>
      <circle id="connector1pin" r="1.8" cx="10.0933" cy="2.88" fill="none" stroke="black"  stroke-width="1.44"/>
     </g>
    </g>
   </g>
  </g>
 </g>
 <g partID="854474440">
  <g transform="translate(63.236,46.4826)">
   <g transform="matrix(0,-1,1,0,0,0)">
    <g id="copper0" >
     <rect width="3.96" id="rect11" height="3.96" x="1.98" fill="none" stroke="black"  y="5.58" stroke-width="1.44"/>
     <circle r="1.98" id="connector0pin" cx="3.96" cy="7.56" fill="none" stroke="black"  stroke-width="1.44"/>
     <circle r="1.98" id="connector1pin" cx="11.16" cy="7.56" fill="none" stroke="black"  stroke-width="1.44"/>
    </g>
   </g>
  </g>
 </g>
 <g partID="854440010">
  <g transform="translate(195.356,33.1626)">
   <g transform="matrix(0,-1,1,0,0,0)">
    <g id="copper0" >
     <circle id="connector0pin" r="1.71212" cx="5.04" cy="5.04" fill="none" stroke="black"  stroke-width="1.44"/>
     <circle id="connector1pin" r="1.71212" cx="5.04" cy="19.44" fill="none" stroke="black"  stroke-width="1.44"/>
    </g>
   </g>
  </g>
 </g>
 <g partID="854439990">
  <g transform="translate(152.156,33.1626)">
   <g transform="matrix(5.55112e-16,-1,1,5.55112e-16,0,0)">
    <g id="copper0" >
     <circle id="connector0pin" r="1.71212" cx="5.04" cy="5.04" fill="none" stroke="black"  stroke-width="1.44"/>
     <circle id="connector1pin" r="1.71212" cx="5.04" cy="19.44" fill="none" stroke="black"  stroke-width="1.44"/>
    </g>
   </g>
  </g>
 </g>
 <g partID="854419250">
  <g transform="translate(152.156,83.5626)">
   <g transform="matrix(0,-1,1,0,0,0)">
    <g id="copper0" >
     <circle id="connector0pin" r="1.71212" cx="5.04" cy="5.04" fill="none" stroke="black"  stroke-width="1.44"/>
     <circle id="connector1pin" r="1.71212" cx="5.04" cy="19.44" fill="none" stroke="black"  stroke-width="1.44"/>
    </g>
   </g>
  </g>
 </g>
 <g partID="854419230">
  <g transform="translate(195.356,83.5626)">
   <g transform="matrix(0,-1,1,0,0,0)">
    <g id="copper0" >
     <circle id="connector0pin" r="1.71212" cx="5.04" cy="5.04" fill="none" stroke="black"  stroke-width="1.44"/>
     <circle id="connector1pin" r="1.71212" cx="5.04" cy="19.44" fill="none" stroke="black"  stroke-width="1.44"/>
    </g>
   </g>
  </g>
 </g>
 <g partID="854417180">
  <g transform="translate(195.356,119.563)">
   <g transform="matrix(0,-1,1,0,0,0)">
    <g id="copper0" >
     <circle id="connector0pin" r="1.71212" cx="5.04" cy="5.04" fill="none" stroke="black"  stroke-width="1.44"/>
     <circle id="connector1pin" r="1.71212" cx="5.04" cy="19.44" fill="none" stroke="black"  stroke-width="1.44"/>
    </g>
   </g>
  </g>
 </g>
 <g partID="854416100">
  <g transform="translate(152.156,119.563)">
   <g transform="matrix(0,-1,1,0,0,0)">
    <g id="copper0" >
     <circle id="connector0pin" r="1.71212" cx="5.04" cy="5.04" fill="none" stroke="black"  stroke-width="1.44"/>
     <circle id="connector1pin" r="1.71212" cx="5.04" cy="19.44" fill="none" stroke="black"  stroke-width="1.44"/>
    </g>
   </g>
  </g>
 </g>
 <g partID="854413010">
  <g transform="translate(195.356,169.963)">
   <g transform="matrix(0,-1,1,0,0,0)">
    <g id="copper0" >
     <circle id="connector0pin" r="1.71212" cx="5.04" cy="5.04" fill="none" stroke="black"  stroke-width="1.44"/>
     <circle id="connector1pin" r="1.71212" cx="5.04" cy="19.44" fill="none" stroke="black"  stroke-width="1.44"/>
    </g>
   </g>
  </g>
 </g>
 <g partID="854408930">
  <g transform="translate(152.156,169.963)">
   <g transform="matrix(0,-1,1,0,0,0)">
    <g id="copper0" >
     <circle id="connector0pin" r="1.71212" cx="5.04" cy="5.04" fill="none" stroke="black"  stroke-width="1.44"/>
     <circle id="connector1pin" r="1.71212" cx="5.04" cy="19.44" fill="none" stroke="black"  stroke-width="1.44"/>
    </g>
   </g>
  </g>
 </g>
 <g partID="854340290">
  <g transform="translate(5.36466,5.87522)">
   <g id="copper0" >
    <circle r="4.96063" id="nonconn0" cx="7.97796" cy="7.97796" fill="none" stroke="black"  stroke-width="2.83465"/>
   </g>
  </g>
 </g>
 <g partID="854340260">
  <g transform="translate(5.21804,172.201)">
   <g id="copper0" >
    <circle r="4.96063" id="nonconn0" cx="7.97796" cy="7.97796" fill="none" stroke="black"  stroke-width="2.83465"/>
   </g>
  </g>
 </g>
 <g partID="854344600">
  <g transform="translate(104.636,174.283)">
   <g transform="matrix(0,1,-1,0,0,0)">
    <g id="copper0" >
     <circle id="connector0pin" r="2.088" cx="5.04" cy="5.04" fill="none" stroke="black"  stroke-width="1.44"/>
     <circle id="connector1pin" r="2.088" cx="5.04" cy="12.24" fill="none" stroke="black"  stroke-width="1.44"/>
     <circle id="connector2pin" r="2.088" cx="5.04" cy="19.44" fill="none" stroke="black"  stroke-width="1.44"/>
    </g>
   </g>
  </g>
 </g>
 <g partID="854344580">
  <g transform="translate(119.036,1.48256)">
   <g transform="matrix(0,1,-1,0,0,0)">
    <g id="copper0" >
     <circle id="connector0pin" r="2.088" cx="5.04" cy="5.04" fill="none" stroke="black"  stroke-width="1.44"/>
     <circle id="connector1pin" r="2.088" cx="5.04" cy="12.24" fill="none" stroke="black"  stroke-width="1.44"/>
     <circle id="connector2pin" r="2.088" cx="5.04" cy="19.44" fill="none" stroke="black"  stroke-width="1.44"/>
    </g>
   </g>
  </g>
 </g>
 <g partID="854462620">
  <g transform="translate(1.1024,23.2132)">
   <g id="copper0"  gorn="0.3.0">
    <circle r="2.088" id="connector0pin" cx="5.04" cy="5.04" fill="none" stroke="black"  stroke-width="1.44" gorn="0.3.0.0"/>
    <circle r="2.088" id="connector1pin" cx="5.04" cy="12.24" fill="none" stroke="black"  stroke-width="1.44" gorn="0.3.0.1"/>
    <circle r="2.088" id="connector2pin" cx="5.04" cy="19.44" fill="none" stroke="black"  stroke-width="1.44" gorn="0.3.0.2"/>
    <circle r="2.088" id="connector3pin" cx="5.04" cy="26.64" fill="none" stroke="black"  stroke-width="1.44" gorn="0.3.0.3"/>
    <circle r="2.088" id="connector4pin" cx="5.04" cy="33.84" fill="none" stroke="black"  stroke-width="1.44" gorn="0.3.0.4"/>
    <circle r="2.088" id="connector5pin" cx="5.04" cy="41.04" fill="none" stroke="black"  stroke-width="1.44" gorn="0.3.0.5"/>
    <circle r="2.088" id="connector6pin" cx="5.04" cy="48.24" fill="none" stroke="black"  stroke-width="1.44" gorn="0.3.0.6"/>
    <circle r="2.088" id="connector7pin" cx="5.04" cy="55.44" fill="none" stroke="black"  stroke-width="1.44" gorn="0.3.0.7"/>
    <circle r="2.088" id="connector8pin" cx="5.04" cy="62.64" fill="none" stroke="black"  stroke-width="1.44" gorn="0.3.0.8"/>
    <circle r="2.088" id="connector9pin" cx="5.04" cy="69.84" fill="none" stroke="black"  stroke-width="1.44" gorn="0.3.0.9"/>
    <circle r="2.088" id="connector10pin" cx="5.04" cy="77.04" fill="none" stroke="black"  stroke-width="1.44" gorn="0.3.0.10"/>
    <circle r="2.088" id="connector11pin" cx="5.04" cy="84.24" fill="none" stroke="black"  stroke-width="1.44" gorn="0.3.0.11"/>
    <circle r="2.088" id="connector12pin" cx="5.04" cy="91.44" fill="none" stroke="black"  stroke-width="1.44" gorn="0.3.0.12"/>
    <circle r="2.088" id="connector13pin" cx="5.04" cy="98.64" fill="none" stroke="black"  stroke-width="1.44" gorn="0.3.0.13"/>
    <circle r="2.088" id="connector14pin" cx="5.04" cy="105.84" fill="none" stroke="black"  stroke-width="1.44" gorn="0.3.0.14"/>
    <circle r="2.088" id="connector15pin" cx="5.04" cy="113.04" fill="none" stroke="black"  stroke-width="1.44" gorn="0.3.0.15"/>
    <circle r="2.088" id="connector16pin" cx="5.04" cy="120.24" fill="none" stroke="black"  stroke-width="1.44" gorn="0.3.0.16"/>
    <circle r="2.088" id="connector17pin" cx="5.04" cy="127.44" fill="none" stroke="black"  stroke-width="1.44" gorn="0.3.0.17"/>
    <circle r="2.088" id="connector18pin" cx="5.04" cy="134.64" fill="none" stroke="black"  stroke-width="1.44" gorn="0.3.0.18"/>
    <circle r="2.088" id="connector19pin" cx="5.04" cy="141.84" fill="none" stroke="black"  stroke-width="1.44" gorn="0.3.0.19"/>
    <circle r="2.088" id="connector0pin" cx="5.04" cy="5.04" fill="none" stroke="black"  stroke-width="1.44" gorn="0.3.0.20"/>
    <circle r="2.088" id="connector1pin" cx="5.04" cy="12.24" fill="none" stroke="black"  stroke-width="1.44" gorn="0.3.0.21"/>
    <circle r="2.088" id="connector2pin" cx="5.04" cy="19.44" fill="none" stroke="black"  stroke-width="1.44" gorn="0.3.0.22"/>
    <circle r="2.088" id="connector3pin" cx="5.04" cy="26.64" fill="none" stroke="black"  stroke-width="1.44" gorn="0.3.0.23"/>
    <circle r="2.088" id="connector4pin" cx="5.04" cy="33.84" fill="none" stroke="black"  stroke-width="1.44" gorn="0.3.0.24"/>
    <circle r="2.088" id="connector5pin" cx="5.04" cy="41.04" fill="none" stroke="black"  stroke-width="1.44" gorn="0.3.0.25"/>
    <circle r="2.088" id="connector6pin" cx="5.04" cy="48.24" fill="none" stroke="black"  stroke-width="1.44" gorn="0.3.0.26"/>
    <circle r="2.088" id="connector7pin" cx="5.04" cy="55.44" fill="none" stroke="black"  stroke-width="1.44" gorn="0.3.0.27"/>
    <circle r="2.088" id="connector8pin" cx="5.04" cy="62.64" fill="none" stroke="black"  stroke-width="1.44" gorn="0.3.0.28"/>
    <circle r="2.088" id="connector9pin" cx="5.04" cy="69.84" fill="none" stroke="black"  stroke-width="1.44" gorn="0.3.0.29"/>
    <circle r="2.088" id="connector10pin" cx="5.04" cy="77.04" fill="none" stroke="black"  stroke-width="1.44" gorn="0.3.0.30"/>
    <circle r="2.088" id="connector11pin" cx="5.04" cy="84.24" fill="none" stroke="black"  stroke-width="1.44" gorn="0.3.0.31"/>
    <circle r="2.088" id="connector12pin" cx="5.04" cy="91.44" fill="none" stroke="black"  stroke-width="1.44" gorn="0.3.0.32"/>
    <circle r="2.088" id="connector13pin" cx="5.04" cy="98.64" fill="none" stroke="black"  stroke-width="1.44" gorn="0.3.0.33"/>
    <circle r="2.088" id="connector14pin" cx="5.04" cy="105.84" fill="none" stroke="black"  stroke-width="1.44" gorn="0.3.0.34"/>
    <circle r="2.088" id="connector15pin" cx="5.04" cy="113.04" fill="none" stroke="black"  stroke-width="1.44" gorn="0.3.0.35"/>
    <circle r="2.088" id="connector16pin" cx="5.04" cy="120.24" fill="none" stroke="black"  stroke-width="1.44" gorn="0.3.0.36"/>
    <circle r="2.088" id="connector17pin" cx="5.04" cy="127.44" fill="none" stroke="black"  stroke-width="1.44" gorn="0.3.0.37"/>
    <circle r="2.088" id="connector18pin" cx="5.04" cy="134.64" fill="none" stroke="black"  stroke-width="1.44" gorn="0.3.0.38"/>
    <circle r="2.088" id="connector19pin" cx="5.04" cy="141.84" fill="none" stroke="black"  stroke-width="1.44" gorn="0.3.0.39"/>
    <circle r="2.088" id="connector20pin" cx="12.24" cy="141.84" fill="none" stroke="black"  stroke-width="1.44" gorn="0.3.0.40"/>
    <circle r="2.088" id="connector21pin" cx="12.24" cy="134.64" fill="none" stroke="black"  stroke-width="1.44" gorn="0.3.0.41"/>
    <circle r="2.088" id="connector22pin" cx="12.24" cy="127.44" fill="none" stroke="black"  stroke-width="1.44" gorn="0.3.0.42"/>
    <circle r="2.088" id="connector23pin" cx="12.24" cy="120.24" fill="none" stroke="black"  stroke-width="1.44" gorn="0.3.0.43"/>
    <circle r="2.088" id="connector24pin" cx="12.24" cy="113.04" fill="none" stroke="black"  stroke-width="1.44" gorn="0.3.0.44"/>
    <circle r="2.088" id="connector25pin" cx="12.24" cy="105.84" fill="none" stroke="black"  stroke-width="1.44" gorn="0.3.0.45"/>
    <circle r="2.088" id="connector26pin" cx="12.24" cy="98.64" fill="none" stroke="black"  stroke-width="1.44" gorn="0.3.0.46"/>
    <circle r="2.088" id="connector27pin" cx="12.24" cy="91.44" fill="none" stroke="black"  stroke-width="1.44" gorn="0.3.0.47"/>
    <circle r="2.088" id="connector28pin" cx="12.24" cy="84.24" fill="none" stroke="black"  stroke-width="1.44" gorn="0.3.0.48"/>
    <circle r="2.088" id="connector29pin" cx="12.24" cy="77.04" fill="none" stroke="black"  stroke-width="1.44" gorn="0.3.0.49"/>
    <circle r="2.088" id="connector30pin" cx="12.24" cy="69.84" fill="none" stroke="black"  stroke-width="1.44" gorn="0.3.0.50"/>
    <circle r="2.088" id="connector31pin" cx="12.24" cy="62.64" fill="none" stroke="black"  stroke-width="1.44" gorn="0.3.0.51"/>
    <circle r="2.088" id="connector32pin" cx="12.24" cy="55.44" fill="none" stroke="black"  stroke-width="1.44" gorn="0.3.0.52"/>
    <circle r="2.088" id="connector33pin" cx="12.24" cy="48.24" fill="none" stroke="black"  stroke-width="1.44" gorn="0.3.0.53"/>
    <circle r="2.088" id="connector34pin" cx="12.24" cy="41.04" fill="none" stroke="black"  stroke-width="1.44" gorn="0.3.0.54"/>
    <circle r="2.088" id="connector35pin" cx="12.24" cy="33.84" fill="none" stroke="black"  stroke-width="1.44" gorn="0.3.0.55"/>
    <circle r="2.088" id="connector36pin" cx="12.24" cy="26.64" fill="none" stroke="black"  stroke-width="1.44" gorn="0.3.0.56"/>
    <circle r="2.088" id="connector37pin" cx="12.24" cy="19.44" fill="none" stroke="black"  stroke-width="1.44" gorn="0.3.0.57"/>
    <circle r="2.088" id="connector38pin" cx="12.24" cy="12.24" fill="none" stroke="black"  stroke-width="1.44" gorn="0.3.0.58"/>
    <circle r="2.088" id="connector39pin" cx="12.24" cy="5.04" fill="none" stroke="black"  stroke-width="1.44" gorn="0.3.0.59"/>
   </g>
  </g>
 </g>
 <g partID="76840">
  <g transform="translate(175.196,50.7306)">
   <g transform="matrix(-1,0,0,-1,0,0)">
    <g id="copper0" >
     <circle id="connector0pin" r="1.98" cx="3.6" cy="8.208" fill="none" stroke="black"  stroke-width="1.44"/>
     <circle id="connector1pin" r="1.98" cx="10.8" cy="8.208" fill="none" stroke="black"  stroke-width="1.44"/>
     <circle id="connector2pin" r="1.98" cx="18" cy="8.208" fill="none" stroke="black"  stroke-width="1.44"/>
    </g>
   </g>
  </g>
 </g>
 <g partID="76830">
  <g transform="translate(175.196,72.3306)">
   <g transform="matrix(-1,0,0,-1,0,0)">
    <g id="copper0" >
     <circle id="connector0pin" r="1.98" cx="3.6" cy="8.208" fill="none" stroke="black"  stroke-width="1.44"/>
     <circle id="connector1pin" r="1.98" cx="10.8" cy="8.208" fill="none" stroke="black"  stroke-width="1.44"/>
     <circle id="connector2pin" r="1.98" cx="18" cy="8.208" fill="none" stroke="black"  stroke-width="1.44"/>
    </g>
   </g>
  </g>
 </g>
 <g partID="68780">
  <g transform="translate(175.196,137.131)">
   <g transform="matrix(-1,0,0,-1,0,0)">
    <g id="copper0" >
     <circle id="connector0pin" r="1.98" cx="3.6" cy="8.208" fill="none" stroke="black"  stroke-width="1.44"/>
     <circle id="connector1pin" r="1.98" cx="10.8" cy="8.208" fill="none" stroke="black"  stroke-width="1.44"/>
     <circle id="connector2pin" r="1.98" cx="18" cy="8.208" fill="none" stroke="black"  stroke-width="1.44"/>
    </g>
   </g>
  </g>
 </g>
 <g partID="67370">
  <g transform="translate(175.196,158.731)">
   <g transform="matrix(-1,0,0,-1,0,0)">
    <g id="copper0" >
     <circle id="connector0pin" r="1.98" cx="3.6" cy="8.208" fill="none" stroke="black"  stroke-width="1.44"/>
     <circle id="connector1pin" r="1.98" cx="10.8" cy="8.208" fill="none" stroke="black"  stroke-width="1.44"/>
     <circle id="connector2pin" r="1.98" cx="18" cy="8.208" fill="none" stroke="black"  stroke-width="1.44"/>
    </g>
   </g>
  </g>
 </g>
 <g partID="76860">
  <g transform="translate(196.796,34.3146)">
   <g id="copper0" >
    <circle id="connector0pin" r="1.98" cx="3.6" cy="8.208" fill="none" stroke="black"  stroke-width="1.44"/>
    <circle id="connector1pin" r="1.98" cx="10.8" cy="8.208" fill="none" stroke="black"  stroke-width="1.44"/>
    <circle id="connector2pin" r="1.98" cx="18" cy="8.208" fill="none" stroke="black"  stroke-width="1.44"/>
   </g>
  </g>
 </g>
 <g partID="76850">
  <g transform="translate(196.796,55.9146)">
   <g id="copper0" >
    <circle id="connector0pin" r="1.98" cx="3.6" cy="8.208" fill="none" stroke="black"  stroke-width="1.44"/>
    <circle id="connector1pin" r="1.98" cx="10.8" cy="8.208" fill="none" stroke="black"  stroke-width="1.44"/>
    <circle id="connector2pin" r="1.98" cx="18" cy="8.208" fill="none" stroke="black"  stroke-width="1.44"/>
   </g>
  </g>
 </g>
 <g partID="68870">
  <g transform="translate(196.796,120.715)">
   <g id="copper0" >
    <circle id="connector0pin" r="1.98" cx="3.6" cy="8.208" fill="none" stroke="black"  stroke-width="1.44"/>
    <circle id="connector1pin" r="1.98" cx="10.8" cy="8.208" fill="none" stroke="black"  stroke-width="1.44"/>
    <circle id="connector2pin" r="1.98" cx="18" cy="8.208" fill="none" stroke="black"  stroke-width="1.44"/>
   </g>
  </g>
 </g>
 <g partID="68840">
  <g transform="translate(196.796,142.315)">
   <g id="copper0" >
    <circle id="connector0pin" r="1.98" cx="3.6" cy="8.208" fill="none" stroke="black"  stroke-width="1.44"/>
    <circle id="connector1pin" r="1.98" cx="10.8" cy="8.208" fill="none" stroke="black"  stroke-width="1.44"/>
    <circle id="connector2pin" r="1.98" cx="18" cy="8.208" fill="none" stroke="black"  stroke-width="1.44"/>
   </g>
  </g>
 </g>
 <g partID="76940">
  <g transform="translate(161.696,83.0226)">
   <g transform="matrix(1,0,0,1,0,0)">
    <g id="copper0" >
     <g id="copper1" >
      <!-- <rect width="55" x="10" y="10" fill="none" height="55" stroke="rgb(255, 191, 0)" stroke-width="20" /> -->
      <circle r="1.98" id="connector0pin" cx="2.7" cy="2.7" fill="none" stroke="black"  stroke-width="1.44"/>
      <circle r="1.98" id="connector1pin" cx="24.3" cy="2.7" fill="none" stroke="black"  stroke-width="1.44"/>
     </g>
    </g>
   </g>
  </g>
 </g>
 <g partID="76930">
  <g transform="translate(183.296,83.0226)">
   <g transform="matrix(1,0,0,1,0,0)">
    <g id="copper0" >
     <g id="copper1" >
      <!-- <rect width="55" x="10" y="10" fill="none" height="55" stroke="rgb(255, 191, 0)" stroke-width="20" /> -->
      <circle r="1.98" id="connector0pin" cx="2.7" cy="2.7" fill="none" stroke="black"  stroke-width="1.44"/>
      <circle r="1.98" id="connector1pin" cx="24.3" cy="2.7" fill="none" stroke="black"  stroke-width="1.44"/>
     </g>
    </g>
   </g>
  </g>
 </g>
 <g partID="76920">
  <g transform="translate(161.696,18.2226)">
   <g transform="matrix(1,0,0,1,0,0)">
    <g id="copper0" >
     <g id="copper1" >
      <!-- <rect width="55" x="10" y="10" fill="none" height="55" stroke="rgb(255, 191, 0)" stroke-width="20" /> -->
      <circle r="1.98" id="connector0pin" cx="2.7" cy="2.7" fill="none" stroke="black"  stroke-width="1.44"/>
      <circle r="1.98" id="connector1pin" cx="24.3" cy="2.7" fill="none" stroke="black"  stroke-width="1.44"/>
     </g>
    </g>
   </g>
  </g>
 </g>
 <g partID="76910">
  <g transform="translate(183.296,18.2226)">
   <g transform="matrix(1,0,0,1,0,0)">
    <g id="copper0" >
     <g id="copper1" >
      <!-- <rect width="55" x="10" y="10" fill="none" height="55" stroke="rgb(255, 191, 0)" stroke-width="20" /> -->
      <circle r="1.98" id="connector0pin" cx="2.7" cy="2.7" fill="none" stroke="black"  stroke-width="1.44"/>
      <circle r="1.98" id="connector1pin" cx="24.3" cy="2.7" fill="none" stroke="black"  stroke-width="1.44"/>
     </g>
    </g>
   </g>
  </g>
 </g>
 <g partID="70890">
  <g transform="translate(161.696,104.623)">
   <g transform="matrix(1,0,0,1,0,0)">
    <g id="copper0" >
     <g id="copper1" >
      <!-- <rect width="55" x="10" y="10" fill="none" height="55" stroke="rgb(255, 191, 0)" stroke-width="20" /> -->
      <circle r="1.98" id="connector0pin" cx="2.7" cy="2.7" fill="none" stroke="black"  stroke-width="1.44"/>
      <circle r="1.98" id="connector1pin" cx="24.3" cy="2.7" fill="none" stroke="black"  stroke-width="1.44"/>
     </g>
    </g>
   </g>
  </g>
 </g>
 <g partID="70880">
  <g transform="translate(183.296,104.623)">
   <g transform="matrix(1,0,0,1,0,0)">
    <g id="copper0" >
     <g id="copper1" >
      <!-- <rect width="55" x="10" y="10" fill="none" height="55" stroke="rgb(255, 191, 0)" stroke-width="20" /> -->
      <circle r="1.98" id="connector0pin" cx="2.7" cy="2.7" fill="none" stroke="black"  stroke-width="1.44"/>
      <circle r="1.98" id="connector1pin" cx="24.3" cy="2.7" fill="none" stroke="black"  stroke-width="1.44"/>
     </g>
    </g>
   </g>
  </g>
 </g>
 <g partID="70650">
  <g transform="translate(183.296,169.819)">
   <g transform="matrix(1,0,0,1,0,0)">
    <g id="copper0" >
     <g id="copper1" >
      <!-- <rect width="55" x="10" y="10" fill="none" height="55" stroke="rgb(255, 191, 0)" stroke-width="20" /> -->
      <circle r="1.98" id="connector0pin" cx="2.7" cy="2.7" fill="none" stroke="black"  stroke-width="1.44"/>
      <circle r="1.98" id="connector1pin" cx="24.3" cy="2.7" fill="none" stroke="black"  stroke-width="1.44"/>
     </g>
    </g>
   </g>
  </g>
 </g>
 <g partID="854504810">
  <g transform="translate(140.096,9.22256)">
   <g transform="matrix(0,1,-1,0,0,0)">
    <g id="copper0" >
     <g id="copper1" >
      <!-- <rect width="55" x="35" y="35" fill="none" height="55" stroke="rgb(255, 191, 0)" stroke-width="20" /> -->
      <circle r="1.98" id="connector0pin" cx="4.5" cy="4.5" fill="none" stroke="black"  stroke-width="1.44"/>
      <circle r="1.98" id="connector1pin" cx="11.7" cy="4.5" fill="none" stroke="black"  stroke-width="1.44"/>
     </g>
    </g>
   </g>
  </g>
 </g>
 <g partID="854504790">
  <g transform="translate(132.896,18.2226)">
   <g transform="matrix(1,0,0,1,0,0)">
    <g id="copper0" >
     <g id="copper1" >
      <!-- <rect width="55" x="10" y="10" fill="none" height="55" stroke="rgb(255, 191, 0)" stroke-width="20" /> -->
      <circle r="1.98" id="connector0pin" cx="2.7" cy="2.7" fill="none" stroke="black"  stroke-width="1.44"/>
      <circle r="1.98" id="connector1pin" cx="24.3" cy="2.7" fill="none" stroke="black"  stroke-width="1.44"/>
     </g>
    </g>
   </g>
  </g>
 </g>
 <g partID="854459460">
  <g transform="translate(30.296,97.4226)">
   <g transform="matrix(0,-1,1,0,0,0)">
    <g id="copper0" >
     <g id="copper1" >
      <!-- <rect width="55" x="35" y="35" fill="none" height="55" stroke="rgb(255, 191, 0)" stroke-width="20" /> -->
      <circle r="1.98" id="connector0pin" cx="4.5" cy="4.5" fill="none" stroke="black"  stroke-width="1.44"/>
      <circle r="1.98" id="connector1pin" cx="11.7" cy="4.5" fill="none" stroke="black"  stroke-width="1.44"/>
     </g>
    </g>
   </g>
  </g>
 </g>
 <g partID="854541940">
  <g transform="translate(95.096,59.6226)">
   <g transform="matrix(1,0,0,1,0,0)">
    <g id="copper0" >
     <g id="copper1" >
      <!-- <rect width="55" x="35" y="35" fill="none" height="55" stroke="rgb(255, 191, 0)" stroke-width="20" /> -->
      <circle r="1.98" id="connector0pin" cx="4.5" cy="4.5" fill="none" stroke="black"  stroke-width="1.44"/>
      <circle r="1.98" id="connector1pin" cx="11.7" cy="4.5" fill="none" stroke="black"  stroke-width="1.44"/>
     </g>
    </g>
   </g>
  </g>
 </g>
 <g partID="854459440">
  <g transform="translate(39.296,110.023)">
   <g transform="matrix(0,-1,1,0,0,0)">
    <g id="copper0" >
     <g id="copper1" >
      <!-- <rect width="55" x="10" y="10" fill="none" height="55" stroke="rgb(255, 191, 0)" stroke-width="20" /> -->
      <circle r="1.98" id="connector0pin" cx="2.7" cy="2.7" fill="none" stroke="black"  stroke-width="1.44"/>
      <circle r="1.98" id="connector1pin" cx="24.3" cy="2.7" fill="none" stroke="black"  stroke-width="1.44"/>
     </g>
    </g>
   </g>
  </g>
 </g>
 <g partID="70600">
  <g transform="translate(161.696,169.423)">
   <g transform="matrix(1,0,0,1,0,0)">
    <g id="copper0" >
     <g id="copper1" >
      <!-- <rect width="55" x="10" y="10" fill="none" height="55" stroke="rgb(255, 191, 0)" stroke-width="20" /> -->
      <circle r="1.98" id="connector0pin" cx="2.7" cy="2.7" fill="none" stroke="black"  stroke-width="1.44"/>
      <circle r="1.98" id="connector1pin" cx="24.3" cy="2.7" fill="none" stroke="black"  stroke-width="1.44"/>
     </g>
    </g>
   </g>
  </g>
 </g>
 <g partID="76950">
  <g transform="translate(180.956,44.6826)">
   <g id="copper0" >
    <circle id="connector0pin" r="2.088" cx="5.04" cy="5.04" fill="none" stroke="black"  stroke-width="1.44"/>
    <circle id="connector1pin" r="2.088" cx="5.04" cy="12.24" fill="none" stroke="black"  stroke-width="1.44"/>
   </g>
  </g>
 </g>
 <g partID="71140">
  <g transform="translate(180.956,131.083)">
   <g id="copper0" >
    <circle id="connector0pin" r="2.088" cx="5.04" cy="5.04" fill="none" stroke="black"  stroke-width="1.44"/>
    <circle id="connector1pin" r="2.088" cx="5.04" cy="12.24" fill="none" stroke="black"  stroke-width="1.44"/>
   </g>
  </g>
 </g>
 <g partID="116270">
  <g transform="translate(52.0421,155.302)">
   <g transform="matrix(0,1,-1,0,0,0)">
    <g id="copper0" >
     <circle id="connector0pad" r="1.98" cx="20.8462" cy="15.6024" fill="none" stroke="black"  stroke-width="1.44"/>
     <circle id="connector1pad" r="1.98" cx="2.42064" cy="15.6024" fill="none" stroke="black"  stroke-width="1.44"/>
     <circle id="connector2pad" r="1.98" cx="20.8462" cy="2.84616" fill="none" stroke="black"  stroke-width="1.44"/>
     <circle id="connector3pad" r="1.98" cx="2.42064" cy="2.84616" fill="none" stroke="black"  stroke-width="1.44"/>
    </g>
   </g>
  </g>
 </g>
 <g partID="126870">
  <g transform="translate(65.756,51.8826)">
   <g id="copper0" >
    <rect width="4.176" id="square" height="4.176" x="2.952" fill="none" stroke="black"  stroke-width="1.44" y="2.952"/>
    <circle id="connector0pin" r="2.088" cx="5.04" cy="5.04" fill="none" stroke="black"  stroke-width="1.44"/>
    <circle id="connector1pin" r="2.088" cx="5.04" cy="12.24" fill="none" stroke="black"  stroke-width="1.44"/>
    <circle id="connector2pin" r="2.088" cx="5.04" cy="19.44" fill="none" stroke="black"  stroke-width="1.44"/>
    <circle id="connector3pin" r="2.088" cx="5.04" cy="26.64" fill="none" stroke="black"  stroke-width="1.44"/>
    <circle id="connector4pin" r="2.088" cx="5.04" cy="33.84" fill="none" stroke="black"  stroke-width="1.44"/>
   </g>
  </g>
 </g>
 <g partID="854519060">
  <g transform="translate(102.476,67.0026)">
   <g id="copper0"  stroke-width="0">
    <rect width="3.96" height="3.96" x="2.34" fill="none" stroke="black"  y="2.34" stroke-width="1.44"/>
    <circle id="connector0pin" r="1.98" cx="4.32" cy="4.32" fill="none" stroke="black"  stroke-width="1.44"/>
    <circle id="connector27pin" r="1.98" cx="25.92" cy="4.32" fill="none" stroke="black"  stroke-width="1.44"/>
    <circle id="connector1pin" r="1.98" cx="4.32" cy="11.52" fill="none" stroke="black"  stroke-width="1.44"/>
    <circle id="connector26pin" r="1.98" cx="25.92" cy="11.52" fill="none" stroke="black"  stroke-width="1.44"/>
    <circle id="connector2pin" r="1.98" cx="4.32" cy="18.72" fill="none" stroke="black"  stroke-width="1.44"/>
    <circle id="connector25pin" r="1.98" cx="25.92" cy="18.72" fill="none" stroke="black"  stroke-width="1.44"/>
    <circle id="connector3pin" r="1.98" cx="4.32" cy="25.92" fill="none" stroke="black"  stroke-width="1.44"/>
    <circle id="connector24pin" r="1.98" cx="25.92" cy="25.92" fill="none" stroke="black"  stroke-width="1.44"/>
    <circle id="connector4pin" r="1.98" cx="4.32" cy="33.12" fill="none" stroke="black"  stroke-width="1.44"/>
    <circle id="connector23pin" r="1.98" cx="25.92" cy="33.12" fill="none" stroke="black"  stroke-width="1.44"/>
    <circle id="connector5pin" r="1.98" cx="4.32" cy="40.32" fill="none" stroke="black"  stroke-width="1.44"/>
    <circle id="connector22pin" r="1.98" cx="25.92" cy="40.32" fill="none" stroke="black"  stroke-width="1.44"/>
    <circle id="connector6pin" r="1.98" cx="4.32" cy="47.52" fill="none" stroke="black"  stroke-width="1.44"/>
    <circle id="connector21pin" r="1.98" cx="25.92" cy="47.52" fill="none" stroke="black"  stroke-width="1.44"/>
    <circle id="connector7pin" r="1.98" cx="4.32" cy="54.72" fill="none" stroke="black"  stroke-width="1.44"/>
    <circle id="connector20pin" r="1.98" cx="25.92" cy="54.72" fill="none" stroke="black"  stroke-width="1.44"/>
    <circle id="connector8pin" r="1.98" cx="4.32" cy="61.92" fill="none" stroke="black"  stroke-width="1.44"/>
    <circle id="connector19pin" r="1.98" cx="25.92" cy="61.92" fill="none" stroke="black"  stroke-width="1.44"/>
    <circle id="connector9pin" r="1.98" cx="4.32" cy="69.12" fill="none" stroke="black"  stroke-width="1.44"/>
    <circle id="connector18pin" r="1.98" cx="25.92" cy="69.12" fill="none" stroke="black"  stroke-width="1.44"/>
    <circle id="connector10pin" r="1.98" cx="4.32" cy="76.32" fill="none" stroke="black"  stroke-width="1.44"/>
    <circle id="connector17pin" r="1.98" cx="25.92" cy="76.32" fill="none" stroke="black"  stroke-width="1.44"/>
    <circle id="connector11pin" r="1.98" cx="4.32" cy="83.52" fill="none" stroke="black"  stroke-width="1.44"/>
    <circle id="connector16pin" r="1.98" cx="25.92" cy="83.52" fill="none" stroke="black"  stroke-width="1.44"/>
    <circle id="connector12pin" r="1.98" cx="4.32" cy="90.72" fill="none" stroke="black"  stroke-width="1.44"/>
    <circle id="connector15pin" r="1.98" cx="25.92" cy="90.72" fill="none" stroke="black"  stroke-width="1.44"/>
    <circle id="connector13pin" r="1.98" cx="4.32" cy="97.92" fill="none" stroke="black"  stroke-width="1.44"/>
    <circle id="connector14pin" r="1.98" cx="25.92" cy="97.92" fill="none" stroke="black"  stroke-width="1.44"/>
   </g>
  </g>
 </g>
 <g partID="854531260">
  <g transform="translate(85.7,126.475)">
   <g id="copper0" >
    <rect width="3.456" height="3.456" x="4.968" fill="none" stroke="black"  y="0.72" stroke-width="1.512"/>
    <circle id="connector0pad" r="1.728" cx="6.696" cy="2.448" fill="none" stroke="black"  stroke-width="1.512"/>
    <circle id="connector1pad" r="1.728" cx="6.696" cy="9.648" fill="none" stroke="black"  stroke-width="1.512"/>
   </g>
  </g>
 </g>
 <g partID="854547830">
  <g transform="translate(1.244,80.9706)">
   <g id="copper0" >
    <circle r="1.98" id="connector0pad" cx="4.752" cy="4.752" fill="none" stroke="black"  stroke-width="1.44"/>
    <circle r="1.98" id="connector1pad" cx="69.552" cy="4.752" fill="none" stroke="black"  stroke-width="1.44"/>
   </g>
  </g>
 </g>
 <g partID="854548400">
  <g transform="translate(1.244,30.5706)">
   <g id="copper0" >
    <circle r="1.98" id="connector0pad" cx="4.752" cy="4.752" fill="none" stroke="black"  stroke-width="1.44"/>
    <circle r="1.98" id="connector1pad" cx="69.552" cy="33.552" fill="none" stroke="black"  stroke-width="1.44"/>
   </g>
  </g>
 </g>
 <g partID="854550440">
  <g transform="translate(102.044,109.771)">
   <g id="copper0" >
    <circle r="1.98" id="connector0pad" cx="4.752" cy="11.952" fill="none" stroke="black"  stroke-width="1.44"/>
    <circle r="1.98" id="connector1pad" cx="26.352" cy="4.752" fill="none" stroke="black"  stroke-width="1.44"/>
   </g>
  </g>
 </g>
 <g partID="854549580">
  <g transform="translate(66.044,52.1706)">
   <g id="copper0" >
    <circle r="1.98" id="connector0pad" cx="4.752" cy="4.752" fill="none" stroke="black"  stroke-width="1.44"/>
    <circle r="1.98" id="connector1pad" cx="62.352" cy="19.152" fill="none" stroke="black"  stroke-width="1.44"/>
   </g>
  </g>
 </g>
 <g partID="854549360">
  <g transform="translate(1.244,37.7706)">
   <g id="copper0" >
    <circle r="1.98" id="connector0pad" cx="4.752" cy="4.752" fill="none" stroke="black"  stroke-width="1.44"/>
    <circle r="1.98" id="connector1pad" cx="69.552" cy="19.152" fill="none" stroke="black"  stroke-width="1.44"/>
   </g>
  </g>
 </g>
 <g partID="854549120">
  <g transform="translate(66.044,59.3706)">
   <g id="copper0" >
    <circle r="1.98" id="connector0pad" cx="4.752" cy="4.752" fill="none" stroke="black"  stroke-width="1.44"/>
    <circle r="1.98" id="connector1pad" cx="62.352" cy="19.152" fill="none" stroke="black"  stroke-width="1.44"/>
   </g>
  </g>
 </g>
 <g partID="854554430">
  <g transform="translate(74.9651,169.098)">
   <g id="copper0" >
    <circle r="0.992124" id="connector0pin" cx="3.01733" cy="3.01733" fill="none" stroke="black"  stroke-width="0.850392"/>
   </g>
  </g>
 </g>
 <g partID="854460440">
  <line x1="54.192" y2="100.247" x2="15.5104" y1="100.129" stroke="black" stroke-linecap="round" stroke-width="1.728"/>
 </g>
 <g partID="854462240">
  <line x1="32.736" y2="93.04" x2="15.5104" y1="92.9351" stroke="black" stroke-linecap="round" stroke-width="1.728"/>
 </g>
 <g partID="854462310">
  <line x1="39.936" y2="85.7226" x2="36.856" y1="85.7226" stroke="black" stroke-linecap="round" stroke-width="1.728"/>
 </g>
 <g partID="854462380">
  <line x1="54.193" y2="107.323" x2="44.056" y1="107.323" stroke="black" stroke-linecap="round" stroke-width="1.728"/>
 </g>
 <g partID="854462450">
  <line x1="32.736" y2="85.84" x2="15.5104" y1="85.7351" stroke="black" stroke-linecap="round" stroke-width="1.728"/>
 </g>
 <g partID="854464400">
  <line x1="56.5592" y2="129.048" x2="15.5106" y1="128.958" stroke="black" stroke-linecap="round" stroke-width="1.728"/>
 </g>
 <g partID="854464290">
  <line x1="56.4209" y2="128.958" x2="56.5591" y1="116.725" stroke="black" stroke-linecap="round" stroke-width="1.728"/>
 </g>
 <g partID="854474650">
  <line x1="15.5104" y2="35.4354" x2="27.4764" y1="35.4505" stroke="black" stroke-linecap="round" stroke-width="1.728"/>
 </g>
 <g partID="854548460">
  <line x1="27.4764" y2="36.6737" x2="26.3027" y1="35.4354" stroke="black" stroke-linecap="round" stroke-width="1.728"/>
 </g>
 <g partID="854495570">
  <line x1="72.856" y2="35.4354" x2="99.6687" y1="35.3306" stroke="black" stroke-linecap="round" stroke-width="1.728"/>
 </g>
 <g partID="854478850">
  <line x1="99.6687" y2="8.69055" x2="99.6015" y1="35.4354" stroke="black" stroke-linecap="round" stroke-width="1.728"/>
 </g>
 <g partID="854492690">
  <line x1="70.796" y2="8.69056" x2="70.796" y1="33.2626" stroke="black" stroke-linecap="round" stroke-width="1.728"/>
 </g>
 <g partID="854493000">
  <line x1="99.6687" y2="62.0626" x2="99.6012" y1="35.4354" stroke="black" stroke-linecap="round" stroke-width="1.728"/>
 </g>
 <g partID="854495020">
  <line x1="25.7161" y2="42.6333" x2="15.5103" y1="42.5398" stroke="black" stroke-linecap="round" stroke-width="1.728"/>
 </g>
 <g partID="854495760">
  <line x1="68.736" y2="35.3098" x2="29.476" y1="35.3219" stroke="black" stroke-linecap="round" stroke-width="1.728"/>
 </g>
 <g partID="854498210">
  <line x1="29.476" y2="42.5226" x2="68.736" y1="42.5226" stroke="black" stroke-linecap="round" stroke-width="1.728"/>
 </g>
 <g partID="854502520">
  <line x1="70.6808" y2="92.9306" x2="58.6004" y1="92.9805" stroke="black" stroke-linecap="round" stroke-width="1.728"/>
 </g>
 <g partID="854502170">
  <line x1="83.028" y2="179.249" x2="70.8488" y1="179.312" stroke="black" stroke-linecap="round" stroke-width="1.728"/>
 </g>
 <g partID="854528800">
  <line x1="70.8488" y2="92.9805" x2="70.6808" y1="114.476" stroke="black" stroke-linecap="round" stroke-width="1.728"/>
 </g>
 <g partID="854552500">
  <line x1="70.8488" y2="114.476" x2="70.8488" y1="179.249" stroke="black" stroke-linecap="round" stroke-width="1.728"/>
 </g>
 <g partID="854421590">
  <line x1="157.196" y2="80.3147" x2="157.196" y1="112.73" stroke="black" stroke-linecap="round" stroke-width="1.728"/>
 </g>
 <g partID="854503050">
  <line x1="68.628" y2="71.4483" x2="15.5104" y1="71.3275" stroke="black" stroke-linecap="round" stroke-width="1.728"/>
 </g>
 <g partID="854508360">
  <line x1="157.196" y2="22.9826" x2="157.196" y1="26.3304" stroke="black" stroke-linecap="round" stroke-width="1.728"/>
 </g>
 <g partID="854508290">
  <line x1="157.093" y2="6.52719" x2="176.628" y1="6.56864" stroke="black" stroke-linecap="round" stroke-width="1.728"/>
 </g>
 <g partID="854508220">
  <line x1="157.181" y2="6.56864" x2="157.093" y1="18.8626" stroke="black" stroke-linecap="round" stroke-width="1.728"/>
 </g>
 <g partID="854414390">
  <line x1="200.396" y2="152.583" x2="200.396" y1="163.13" stroke="black" stroke-linecap="round" stroke-width="1.728"/>
 </g>
 <g partID="854414540">
  <line x1="214.796" y2="152.583" x2="214.796" y1="163.13" stroke="black" stroke-linecap="round" stroke-width="1.728"/>
 </g>
 <g partID="854416030">
  <line x1="157.196" y2="130.983" x2="157.196" y1="148.463" stroke="black" stroke-linecap="round" stroke-width="1.728"/>
 </g>
 <g partID="854416120">
  <line x1="157.196" y2="116.315" x2="157.196" y1="126.863" stroke="black" stroke-linecap="round" stroke-width="1.728"/>
 </g>
 <g partID="854416230">
  <line x1="171.596" y2="116.315" x2="171.596" y1="126.863" stroke="black" stroke-linecap="round" stroke-width="1.728"/>
 </g>
 <g partID="854417310">
  <line x1="157.196" y2="152.583" x2="157.196" y1="163.13" stroke="black" stroke-linecap="round" stroke-width="1.728"/>
 </g>
 <g partID="854417460">
  <line x1="171.596" y2="152.583" x2="171.596" y1="163.13" stroke="black" stroke-linecap="round" stroke-width="1.728"/>
 </g>
 <g partID="854417780">
  <line x1="214.796" y2="130.983" x2="214.796" y1="148.463" stroke="black" stroke-linecap="round" stroke-width="1.728"/>
 </g>
 <g partID="854418040">
  <line x1="214.796" y2="116.315" x2="214.796" y1="126.863" stroke="black" stroke-linecap="round" stroke-width="1.728"/>
 </g>
 <g partID="854417850">
  <line x1="200.396" y2="116.315" x2="200.396" y1="126.863" stroke="black" stroke-linecap="round" stroke-width="1.728"/>
 </g>
 <g partID="854420960">
  <line x1="214.796" y2="66.1826" x2="214.796" y1="76.7304" stroke="black" stroke-linecap="round" stroke-width="1.728"/>
 </g>
 <g partID="854420770">
  <line x1="200.396" y2="66.1826" x2="200.396" y1="76.7304" stroke="black" stroke-linecap="round" stroke-width="1.728"/>
 </g>
 <g partID="854420620">
  <line x1="171.596" y2="66.1826" x2="171.596" y1="76.7304" stroke="black" stroke-linecap="round" stroke-width="1.728"/>
 </g>
 <g partID="854420190">
  <line x1="157.196" y2="66.1826" x2="157.196" y1="76.7304" stroke="black" stroke-linecap="round" stroke-width="1.728"/>
 </g>
 <g partID="854422180">
  <line x1="214.796" y2="80.3147" x2="214.796" y1="112.73" stroke="black" stroke-linecap="round" stroke-width="1.728"/>
 </g>
 <g partID="854441420">
  <line x1="214.796" y2="29.9147" x2="214.796" y1="40.4626" stroke="black" stroke-linecap="round" stroke-width="1.728"/>
 </g>
 <g partID="854441230">
  <line x1="200.396" y2="29.9147" x2="200.396" y1="40.4626" stroke="black" stroke-linecap="round" stroke-width="1.728"/>
 </g>
 <g partID="854441080">
  <line x1="171.596" y2="29.9147" x2="171.596" y1="40.4626" stroke="black" stroke-linecap="round" stroke-width="1.728"/>
 </g>
 <g partID="854440810">
  <line x1="157.196" y2="29.9147" x2="157.196" y1="40.4626" stroke="black" stroke-linecap="round" stroke-width="1.728"/>
 </g>
 <g partID="854377150">
  <line x1="34.38" y2="157.841" x2="15.5106" y1="157.734" stroke="black" stroke-linecap="round" stroke-width="1.728"/>
 </g>
 <g partID="854528730">
  <line x1="113.936" y2="179.312" x2="101.764" y1="179.249" stroke="black" stroke-linecap="round" stroke-width="1.728"/>
 </g>
 <g partID="854522830">
  <line x1="113.936" y2="179.249" x2="113.936" y1="100.209" stroke="black" stroke-linecap="round" stroke-width="1.728"/>
 </g>
 <g partID="854397790">
  <line x1="108.856" y2="100.209" x2="113.936" y1="100.147" stroke="black" stroke-linecap="round" stroke-width="1.728"/>
 </g>
 <g partID="76960">
  <line x1="157.196" y2="62.0626" x2="157.196" y1="44.5826" stroke="black" stroke-linecap="round" stroke-width="1.728"/>
 </g>
 <g partID="77030">
  <line x1="198.337" y2="42.9186" x2="185.996" y1="42.5792" stroke="black" stroke-linecap="round" stroke-width="1.728"/>
 </g>
 <g partID="77020">
  <line x1="185.996" y2="42.5792" x2="173.655" y1="42.9186" stroke="black" stroke-linecap="round" stroke-width="1.728"/>
 </g>
 <g partID="71680">
  <line x1="185.996" y2="128.923" x2="173.656" y1="128.923" stroke="black" stroke-linecap="round" stroke-width="1.728"/>
 </g>
 <g partID="70450">
  <line x1="198.336" y2="128.923" x2="185.996" y1="128.923" stroke="black" stroke-linecap="round" stroke-width="1.728"/>
 </g>
 <g partID="77050">
  <line x1="214.796" y2="62.0626" x2="214.796" y1="44.5826" stroke="black" stroke-linecap="round" stroke-width="1.728"/>
 </g>
 <g partID="77100">
  <line x1="207.596" y2="83.6626" x2="207.596" y1="66.1826" stroke="black" stroke-linecap="round" stroke-width="1.728"/>
 </g>
 <g partID="70740">
  <line x1="207.596" y2="170.459" x2="207.596" y1="152.583" stroke="black" stroke-linecap="round" stroke-width="1.728"/>
 </g>
 <g partID="71170">
  <line x1="185.996" y2="150.523" x2="173.656" y1="150.523" stroke="black" stroke-linecap="round" stroke-width="1.728"/>
 </g>
 <g partID="70300">
  <line x1="198.336" y2="150.523" x2="185.996" y1="150.523" stroke="black" stroke-linecap="round" stroke-width="1.728"/>
 </g>
 <g partID="77130">
  <line x1="164.396" y2="83.6626" x2="164.396" y1="66.1826" stroke="black" stroke-linecap="round" stroke-width="1.728"/>
 </g>
 <g partID="70810">
  <line x1="164.396" y2="170.063" x2="164.396" y1="152.583" stroke="black" stroke-linecap="round" stroke-width="1.728"/>
 </g>
 <g partID="77140">
  <line x1="207.596" y2="40.4626" x2="207.596" y1="22.9826" stroke="black" stroke-linecap="round" stroke-width="1.728"/>
 </g>
 <g partID="70990">
  <line x1="207.596" y2="126.863" x2="207.596" y1="109.383" stroke="black" stroke-linecap="round" stroke-width="1.728"/>
 </g>
 <g partID="77150">
  <line x1="164.396" y2="40.4626" x2="164.396" y1="22.9826" stroke="black" stroke-linecap="round" stroke-width="1.728"/>
 </g>
 <g partID="71060">
  <line x1="164.396" y2="126.863" x2="164.396" y1="109.383" stroke="black" stroke-linecap="round" stroke-width="1.728"/>
 </g>
 <g partID="71490">
  <line x1="185.996" y2="145.491" x2="185.996" y1="150.523" stroke="black" stroke-linecap="round" stroke-width="1.728"/>
 </g>
 <g partID="77160">
  <line x1="185.996" y2="47.5546" x2="185.996" y1="42.9186" stroke="black" stroke-linecap="round" stroke-width="1.728"/>
 </g>
 <g partID="71820">
  <line x1="185.996" y2="133.955" x2="185.996" y1="128.923" stroke="black" stroke-linecap="round" stroke-width="1.728"/>
 </g>
 <g partID="78170">
  <line x1="198.336" y2="64.1226" x2="185.996" y1="64.1226" stroke="black" stroke-linecap="round" stroke-width="1.728"/>
 </g>
 <g partID="78320">
  <line x1="185.996" y2="64.1226" x2="173.656" y1="64.1226" stroke="black" stroke-linecap="round" stroke-width="1.728"/>
 </g>
 <g partID="78460">
  <line x1="185.996" y2="59.0906" x2="185.996" y1="64.1226" stroke="black" stroke-linecap="round" stroke-width="1.728"/>
 </g>
 <g partID="854526520">
  <line x1="101.476" y2="114.519" x2="104.736" y1="114.513" stroke="black" stroke-linecap="round" stroke-width="1.728"/>
 </g>
 <g partID="854526790">
  <line x1="101.476" y2="121.723" x2="104.736" y1="121.723" stroke="black" stroke-linecap="round" stroke-width="1.728"/>
 </g>
 <g partID="854522760">
  <line x1="113.936" y2="8.69056" x2="113.994" y1="92.7898" stroke="black" stroke-linecap="round" stroke-width="1.728"/>
 </g>
 <g partID="854522690">
  <line x1="108.856" y2="92.7898" x2="113.936" y1="92.8843" stroke="black" stroke-linecap="round" stroke-width="1.728"/>
 </g>
 <g partID="854528860">
  <line x1="70.8488" y2="114.507" x2="97.716" y1="114.476" stroke="black" stroke-linecap="round" stroke-width="1.728"/>
 </g>
 <g partID="854529800">
  <line x1="128.396" y2="126.863" x2="128.396" y1="123.783" stroke="black" stroke-linecap="round" stroke-width="1.728"/>
 </g>
 <g partID="854528360">
  <line x1="135.622" y2="22.9826" x2="135.598" y1="56.8363" stroke="black" stroke-linecap="round" stroke-width="1.728"/>
 </g>
 <g partID="854528250">
  <line x1="121.07" y2="56.8363" x2="135.622" y1="56.8363" stroke="black" stroke-linecap="round" stroke-width="1.728"/>
 </g>
 <g partID="854519370">
  <line x1="121.07" y2="56.8363" x2="121.07" y1="85.6562" stroke="black" stroke-linecap="round" stroke-width="1.728"/>
 </g>
 <g partID="854508820">
  <line x1="126.336" y2="85.6562" x2="121.07" y1="85.7039" stroke="black" stroke-linecap="round" stroke-width="1.728"/>
 </g>
 <g partID="854535560">
  <line x1="77.996" y2="130.803" x2="77.996" y1="134.243" stroke="black" stroke-linecap="round" stroke-width="1.728"/>
 </g>
 <g partID="854553700">
  <line x1="77.9825" y2="136.123" x2="77.996" y1="172.116" stroke="black" stroke-linecap="round" stroke-width="1.728"/>
 </g>
 <g partID="854540930">
  <line x1="92.4378" y2="172.116" x2="92.5351" y1="177.155" stroke="black" stroke-linecap="round" stroke-width="1.728"/>
 </g>
 <g partID="854552970">
  <line x1="92.5351" y2="172.116" x2="79.3494" y1="172.116" stroke="black" stroke-linecap="round" stroke-width="1.728"/>
 </g>
 <g partID="854541580">
  <line x1="90.624" y2="128.923" x2="87.0893" y1="128.923" stroke="black" stroke-linecap="round" stroke-width="1.728"/>
 </g>
 <g partID="854541830">
  <line x1="104.736" y2="136.123" x2="94.168" y1="136.123" stroke="black" stroke-linecap="round" stroke-width="1.728"/>
 </g>
 <g partID="854541720">
  <line x1="104.736" y2="128.923" x2="94.168" y1="128.923" stroke="black" stroke-linecap="round" stroke-width="1.728"/>
 </g>
 <g partID="854542950">
  <line x1="99.596" y2="112.629" x2="99.596" y1="66.1826" stroke="black" stroke-linecap="round" stroke-width="1.728"/>
 </g>
 <g partID="854543420">
  <line x1="106.796" y2="66.1826" x2="106.796" y1="69.2626" stroke="black" stroke-linecap="round" stroke-width="1.728"/>
 </g>
 <g partID="854547860">
  <line x1="4.5248" y2="87.0941" x2="7.53302" y1="84.4097" stroke="black" stroke-linecap="round" stroke-width="1.728"/>
 </g>
 <g partID="854548430">
  <line x1="4.5248" y2="36.6941" x2="7.53302" y1="34.0097" stroke="black" stroke-linecap="round" stroke-width="1.728"/>
 </g>
 <g partID="854549400">
  <line x1="4.5248" y2="43.8941" x2="7.53302" y1="41.2097" stroke="black" stroke-linecap="round" stroke-width="1.728"/>
 </g>
 <g partID="854559530">
  <line x1="36.4397" y2="172.116" x2="36.4397" y1="174.088" stroke="black" stroke-linecap="round" stroke-width="1.728"/>
 </g>
 <g partID="854560420">
  <line x1="6.07546" y2="167.221" x2="6.12185" y1="172.116" stroke="black" stroke-linecap="round" stroke-width="1.728"/>
 </g>
 <g partID="854561310">
  <line x1="36.4397" y2="172.116" x2="6.07546" y1="172.116" stroke="black" stroke-linecap="round" stroke-width="1.728"/>
 </g>
</svg>
