<?xml version='1.0' encoding='UTF-8' standalone='no'?>
<!-- Created with Fritzing (http://www.fritzing.org/) -->
<svg xmlns="http://www.w3.org/2000/svg" width="3.07231in" height="2.59143in" x="0in" version="1.2" viewBox="0 0 221.206 186.583"  baseProfile="tiny" xmlns:svg="http://www.w3.org/2000/svg" y="0in">
 <g partID="854335990">
  <g transform="translate(22.1234,5.26032)">
   <g transform="matrix(0,1,-1,0,0,0)">
    <g id="board" >
     <rect width="183.676" id="boardoutline" height="84.4634" x="0.288" fill="none" stroke="black" fill-opacity="0.5"  stroke-width="0.5" y="0.288"/>
    </g>
   </g>
  </g>
 </g>
 <g partID="57640">
  <g id="board" />
 </g>
 <g partID="854455601">
  <g transform="translate(59.1104,90.2726)">
   <g transform="matrix(0,1,-1,0,0,0)">
    <g id="copper1" >
     <circle id="connector4" r="1.98" cx="2.649" cy="2.714" fill="black" stroke="black"  stroke-width="1.872"/>
     <circle id="connector5" r="1.98" cx="9.85" cy="2.714" fill="black" stroke="black"  stroke-width="1.872"/>
     <circle id="connector6" r="1.979" cx="17.051" cy="2.714" fill="black" stroke="black"  stroke-width="1.872"/>
     <circle id="connector7" r="1.979" cx="24.25" cy="2.714" fill="black" stroke="black"  stroke-width="1.872"/>
    </g>
   </g>
  </g>
 </g>
 <g partID="854472931">
  <g transform="translate(173.756,11.5626)">
   <g transform="matrix(0,-1,1,0,0,0)">
    <g id="copper1" >
     <g id="copper0" >
      <circle id="connector0pin" r="2.088" cx="5.04" cy="5.04" fill="black" stroke="black"  stroke-width="2.16"/>
      <circle id="connector1pin" r="2.088" cx="5.04" cy="12.24" fill="black" stroke="black"  stroke-width="2.16"/>
     </g>
    </g>
   </g>
  </g>
 </g>
 <g partID="854472901">
  <g transform="translate(65.756,11.5626)">
   <g transform="matrix(0,-1,1,0,0,0)">
    <g id="copper1" >
     <g id="copper0" >
      <circle id="connector0pin" r="2.088" cx="5.04" cy="5.04" fill="black" stroke="black"  stroke-width="2.16"/>
      <circle id="connector1pin" r="2.088" cx="5.04" cy="12.24" fill="black" stroke="black"  stroke-width="2.16"/>
     </g>
    </g>
   </g>
  </g>
 </g>
 <g partID="854498881">
  <g transform="translate(102.476,111.629)">
   <g transform="matrix(0,1,-1,0,0,0)">
    <g id="copper1" >
     <circle id="connector0pin" r="1.8" cx="2.88" cy="2.88" fill="black" stroke="black"  stroke-width="2.16"/>
     <circle id="connector1pin" r="1.8" cx="10.0933" cy="2.88" fill="black" stroke="black"  stroke-width="2.16"/>
    </g>
   </g>
  </g>
 </g>
 <g partID="854474411">
  <g transform="translate(30.476,32.4292)">
   <g transform="matrix(0,1,-1,0,0,0)">
    <g id="copper1" >
     <circle id="connector0pin" r="1.8" cx="2.88" cy="2.88" fill="black" stroke="black"  stroke-width="2.16"/>
     <circle id="connector1pin" r="1.8" cx="10.0933" cy="2.88" fill="black" stroke="black"  stroke-width="2.16"/>
    </g>
   </g>
  </g>
 </g>
 <g partID="854474441">
  <g transform="translate(63.236,46.4826)">
   <g transform="matrix(0,-1,1,0,0,0)">
    <g id="copper1" >
     <g id="copper0" >
      <rect width="3.96" id="rect11" height="3.96" x="1.98" fill="black" stroke="black"  y="5.58" stroke-width="2.16"/>
      <circle r="1.98" id="connector0pin" cx="3.96" cy="7.56" fill="black" stroke="black"  stroke-width="2.16"/>
      <circle r="1.98" id="connector1pin" cx="11.16" cy="7.56" fill="black" stroke="black"  stroke-width="2.16"/>
     </g>
    </g>
   </g>
  </g>
 </g>
 <g partID="854440011">
  <g transform="translate(195.356,33.1626)">
   <g transform="matrix(0,-1,1,0,0,0)">
    <g id="copper1" >
     <g id="copper0" >
      <circle id="connector0pin" r="1.71212" cx="5.04" cy="5.04" fill="black" stroke="black"  stroke-width="2.16"/>
      <circle id="connector1pin" r="1.71212" cx="5.04" cy="19.44" fill="black" stroke="black"  stroke-width="2.16"/>
     </g>
    </g>
   </g>
  </g>
 </g>
 <g partID="854439991">
  <g transform="translate(152.156,33.1626)">
   <g transform="matrix(5.55112e-16,-1,1,5.55112e-16,0,0)">
    <g id="copper1" >
     <g id="copper0" >
      <circle id="connector0pin" r="1.71212" cx="5.04" cy="5.04" fill="black" stroke="black"  stroke-width="2.16"/>
      <circle id="connector1pin" r="1.71212" cx="5.04" cy="19.44" fill="black" stroke="black"  stroke-width="2.16"/>
     </g>
    </g>
   </g>
  </g>
 </g>
 <g partID="854419251">
  <g transform="translate(152.156,83.5626)">
   <g transform="matrix(0,-1,1,0,0,0)">
    <g id="copper1" >
     <g id="copper0" >
      <circle id="connector0pin" r="1.71212" cx="5.04" cy="5.04" fill="black" stroke="black"  stroke-width="2.16"/>
      <circle id="connector1pin" r="1.71212" cx="5.04" cy="19.44" fill="black" stroke="black"  stroke-width="2.16"/>
     </g>
    </g>
   </g>
  </g>
 </g>
 <g partID="854419231">
  <g transform="translate(195.356,83.5626)">
   <g transform="matrix(0,-1,1,0,0,0)">
    <g id="copper1" >
     <g id="copper0" >
      <circle id="connector0pin" r="1.71212" cx="5.04" cy="5.04" fill="black" stroke="black"  stroke-width="2.16"/>
      <circle id="connector1pin" r="1.71212" cx="5.04" cy="19.44" fill="black" stroke="black"  stroke-width="2.16"/>
     </g>
    </g>
   </g>
  </g>
 </g>
 <g partID="854417181">
  <g transform="translate(195.356,119.563)">
   <g transform="matrix(0,-1,1,0,0,0)">
    <g id="copper1" >
     <g id="copper0" >
      <circle id="connector0pin" r="1.71212" cx="5.04" cy="5.04" fill="black" stroke="black"  stroke-width="2.16"/>
      <circle id="connector1pin" r="1.71212" cx="5.04" cy="19.44" fill="black" stroke="black"  stroke-width="2.16"/>
     </g>
    </g>
   </g>
  </g>
 </g>
 <g partID="854416101">
  <g transform="translate(152.156,119.563)">
   <g transform="matrix(0,-1,1,0,0,0)">
    <g id="copper1" >
     <g id="copper0" >
      <circle id="connector0pin" r="1.71212" cx="5.04" cy="5.04" fill="black" stroke="black"  stroke-width="2.16"/>
      <circle id="connector1pin" r="1.71212" cx="5.04" cy="19.44" fill="black" stroke="black"  stroke-width="2.16"/>
     </g>
    </g>
   </g>
  </g>
 </g>
 <g partID="854413011">
  <g transform="translate(195.356,169.963)">
   <g transform="matrix(0,-1,1,0,0,0)">
    <g id="copper1" >
     <g id="copper0" >
      <circle id="connector0pin" r="1.71212" cx="5.04" cy="5.04" fill="black" stroke="black"  stroke-width="2.16"/>
      <circle id="connector1pin" r="1.71212" cx="5.04" cy="19.44" fill="black" stroke="black"  stroke-width="2.16"/>
     </g>
    </g>
   </g>
  </g>
 </g>
 <g partID="854408931">
  <g transform="translate(152.156,169.963)">
   <g transform="matrix(0,-1,1,0,0,0)">
    <g id="copper1" >
     <g id="copper0" >
      <circle id="connector0pin" r="1.71212" cx="5.04" cy="5.04" fill="black" stroke="black"  stroke-width="2.16"/>
      <circle id="connector1pin" r="1.71212" cx="5.04" cy="19.44" fill="black" stroke="black"  stroke-width="2.16"/>
     </g>
    </g>
   </g>
  </g>
 </g>
 <g partID="854340291">
  <g transform="translate(5.36466,5.87522)">
   <g id="copper1" >
    <circle r="4.96063" id="nonconn0" cx="7.97796" cy="7.97796" fill="black" stroke="black"  stroke-width="3.55465"/>
   </g>
  </g>
 </g>
 <g partID="854340261">
  <g transform="translate(5.21804,172.201)">
   <g id="copper1" >
    <circle r="4.96063" id="nonconn0" cx="7.97796" cy="7.97796" fill="black" stroke="black"  stroke-width="3.55465"/>
   </g>
  </g>
 </g>
 <g partID="854344601">
  <g transform="translate(104.636,174.283)">
   <g transform="matrix(0,1,-1,0,0,0)">
    <g id="copper1" >
     <g id="copper0" >
      <circle id="connector0pin" r="2.088" cx="5.04" cy="5.04" fill="black" stroke="black"  stroke-width="2.16"/>
      <circle id="connector1pin" r="2.088" cx="5.04" cy="12.24" fill="black" stroke="black"  stroke-width="2.16"/>
      <circle id="connector2pin" r="2.088" cx="5.04" cy="19.44" fill="black" stroke="black"  stroke-width="2.16"/>
     </g>
    </g>
   </g>
  </g>
 </g>
 <g partID="854344581">
  <g transform="translate(119.036,1.48256)">
   <g transform="matrix(0,1,-1,0,0,0)">
    <g id="copper1" >
     <g id="copper0" >
      <circle id="connector0pin" r="2.088" cx="5.04" cy="5.04" fill="black" stroke="black"  stroke-width="2.16"/>
      <circle id="connector1pin" r="2.088" cx="5.04" cy="12.24" fill="black" stroke="black"  stroke-width="2.16"/>
      <circle id="connector2pin" r="2.088" cx="5.04" cy="19.44" fill="black" stroke="black"  stroke-width="2.16"/>
     </g>
    </g>
   </g>
  </g>
 </g>
 <g partID="854462621">
  <g transform="translate(1.1024,23.2132)">
   <g id="copper1"  gorn="0.3">
    <g id="copper0"  gorn="0.3.0">
     <circle r="2.088" id="connector0pin" cx="5.04" cy="5.04" fill="black" stroke="black"  stroke-width="2.16" gorn="0.3.0.0"/>
     <circle r="2.088" id="connector1pin" cx="5.04" cy="12.24" fill="black" stroke="black"  stroke-width="2.16" gorn="0.3.0.1"/>
     <circle r="2.088" id="connector2pin" cx="5.04" cy="19.44" fill="black" stroke="black"  stroke-width="2.16" gorn="0.3.0.2"/>
     <circle r="2.088" id="connector3pin" cx="5.04" cy="26.64" fill="black" stroke="black"  stroke-width="2.16" gorn="0.3.0.3"/>
     <circle r="2.088" id="connector4pin" cx="5.04" cy="33.84" fill="black" stroke="black"  stroke-width="2.16" gorn="0.3.0.4"/>
     <circle r="2.088" id="connector5pin" cx="5.04" cy="41.04" fill="black" stroke="black"  stroke-width="2.16" gorn="0.3.0.5"/>
     <circle r="2.088" id="connector6pin" cx="5.04" cy="48.24" fill="black" stroke="black"  stroke-width="2.16" gorn="0.3.0.6"/>
     <circle r="2.088" id="connector7pin" cx="5.04" cy="55.44" fill="black" stroke="black"  stroke-width="2.16" gorn="0.3.0.7"/>
     <circle r="2.088" id="connector8pin" cx="5.04" cy="62.64" fill="black" stroke="black"  stroke-width="2.16" gorn="0.3.0.8"/>
     <circle r="2.088" id="connector9pin" cx="5.04" cy="69.84" fill="black" stroke="black"  stroke-width="2.16" gorn="0.3.0.9"/>
     <circle r="2.088" id="connector10pin" cx="5.04" cy="77.04" fill="black" stroke="black"  stroke-width="2.16" gorn="0.3.0.10"/>
     <circle r="2.088" id="connector11pin" cx="5.04" cy="84.24" fill="black" stroke="black"  stroke-width="2.16" gorn="0.3.0.11"/>
     <circle r="2.088" id="connector12pin" cx="5.04" cy="91.44" fill="black" stroke="black"  stroke-width="2.16" gorn="0.3.0.12"/>
     <circle r="2.088" id="connector13pin" cx="5.04" cy="98.64" fill="black" stroke="black"  stroke-width="2.16" gorn="0.3.0.13"/>
     <circle r="2.088" id="connector14pin" cx="5.04" cy="105.84" fill="black" stroke="black"  stroke-width="2.16" gorn="0.3.0.14"/>
     <circle r="2.088" id="connector15pin" cx="5.04" cy="113.04" fill="black" stroke="black"  stroke-width="2.16" gorn="0.3.0.15"/>
     <circle r="2.088" id="connector16pin" cx="5.04" cy="120.24" fill="black" stroke="black"  stroke-width="2.16" gorn="0.3.0.16"/>
     <circle r="2.088" id="connector17pin" cx="5.04" cy="127.44" fill="black" stroke="black"  stroke-width="2.16" gorn="0.3.0.17"/>
     <circle r="2.088" id="connector18pin" cx="5.04" cy="134.64" fill="black" stroke="black"  stroke-width="2.16" gorn="0.3.0.18"/>
     <circle r="2.088" id="connector19pin" cx="5.04" cy="141.84" fill="black" stroke="black"  stroke-width="2.16" gorn="0.3.0.19"/>
     <circle r="2.088" id="connector0pin" cx="5.04" cy="5.04" fill="black" stroke="black"  stroke-width="2.16" gorn="0.3.0.20"/>
     <circle r="2.088" id="connector1pin" cx="5.04" cy="12.24" fill="black" stroke="black"  stroke-width="2.16" gorn="0.3.0.21"/>
     <circle r="2.088" id="connector2pin" cx="5.04" cy="19.44" fill="black" stroke="black"  stroke-width="2.16" gorn="0.3.0.22"/>
     <circle r="2.088" id="connector3pin" cx="5.04" cy="26.64" fill="black" stroke="black"  stroke-width="2.16" gorn="0.3.0.23"/>
     <circle r="2.088" id="connector4pin" cx="5.04" cy="33.84" fill="black" stroke="black"  stroke-width="2.16" gorn="0.3.0.24"/>
     <circle r="2.088" id="connector5pin" cx="5.04" cy="41.04" fill="black" stroke="black"  stroke-width="2.16" gorn="0.3.0.25"/>
     <circle r="2.088" id="connector6pin" cx="5.04" cy="48.24" fill="black" stroke="black"  stroke-width="2.16" gorn="0.3.0.26"/>
     <circle r="2.088" id="connector7pin" cx="5.04" cy="55.44" fill="black" stroke="black"  stroke-width="2.16" gorn="0.3.0.27"/>
     <circle r="2.088" id="connector8pin" cx="5.04" cy="62.64" fill="black" stroke="black"  stroke-width="2.16" gorn="0.3.0.28"/>
     <circle r="2.088" id="connector9pin" cx="5.04" cy="69.84" fill="black" stroke="black"  stroke-width="2.16" gorn="0.3.0.29"/>
     <circle r="2.088" id="connector10pin" cx="5.04" cy="77.04" fill="black" stroke="black"  stroke-width="2.16" gorn="0.3.0.30"/>
     <circle r="2.088" id="connector11pin" cx="5.04" cy="84.24" fill="black" stroke="black"  stroke-width="2.16" gorn="0.3.0.31"/>
     <circle r="2.088" id="connector12pin" cx="5.04" cy="91.44" fill="black" stroke="black"  stroke-width="2.16" gorn="0.3.0.32"/>
     <circle r="2.088" id="connector13pin" cx="5.04" cy="98.64" fill="black" stroke="black"  stroke-width="2.16" gorn="0.3.0.33"/>
     <circle r="2.088" id="connector14pin" cx="5.04" cy="105.84" fill="black" stroke="black"  stroke-width="2.16" gorn="0.3.0.34"/>
     <circle r="2.088" id="connector15pin" cx="5.04" cy="113.04" fill="black" stroke="black"  stroke-width="2.16" gorn="0.3.0.35"/>
     <circle r="2.088" id="connector16pin" cx="5.04" cy="120.24" fill="black" stroke="black"  stroke-width="2.16" gorn="0.3.0.36"/>
     <circle r="2.088" id="connector17pin" cx="5.04" cy="127.44" fill="black" stroke="black"  stroke-width="2.16" gorn="0.3.0.37"/>
     <circle r="2.088" id="connector18pin" cx="5.04" cy="134.64" fill="black" stroke="black"  stroke-width="2.16" gorn="0.3.0.38"/>
     <circle r="2.088" id="connector19pin" cx="5.04" cy="141.84" fill="black" stroke="black"  stroke-width="2.16" gorn="0.3.0.39"/>
     <circle r="2.088" id="connector20pin" cx="12.24" cy="141.84" fill="black" stroke="black"  stroke-width="2.16" gorn="0.3.0.40"/>
     <circle r="2.088" id="connector21pin" cx="12.24" cy="134.64" fill="black" stroke="black"  stroke-width="2.16" gorn="0.3.0.41"/>
     <circle r="2.088" id="connector22pin" cx="12.24" cy="127.44" fill="black" stroke="black"  stroke-width="2.16" gorn="0.3.0.42"/>
     <circle r="2.088" id="connector23pin" cx="12.24" cy="120.24" fill="black" stroke="black"  stroke-width="2.16" gorn="0.3.0.43"/>
     <circle r="2.088" id="connector24pin" cx="12.24" cy="113.04" fill="black" stroke="black"  stroke-width="2.16" gorn="0.3.0.44"/>
     <circle r="2.088" id="connector25pin" cx="12.24" cy="105.84" fill="black" stroke="black"  stroke-width="2.16" gorn="0.3.0.45"/>
     <circle r="2.088" id="connector26pin" cx="12.24" cy="98.64" fill="black" stroke="black"  stroke-width="2.16" gorn="0.3.0.46"/>
     <circle r="2.088" id="connector27pin" cx="12.24" cy="91.44" fill="black" stroke="black"  stroke-width="2.16" gorn="0.3.0.47"/>
     <circle r="2.088" id="connector28pin" cx="12.24" cy="84.24" fill="black" stroke="black"  stroke-width="2.16" gorn="0.3.0.48"/>
     <circle r="2.088" id="connector29pin" cx="12.24" cy="77.04" fill="black" stroke="black"  stroke-width="2.16" gorn="0.3.0.49"/>
     <circle r="2.088" id="connector30pin" cx="12.24" cy="69.84" fill="black" stroke="black"  stroke-width="2.16" gorn="0.3.0.50"/>
     <circle r="2.088" id="connector31pin" cx="12.24" cy="62.64" fill="black" stroke="black"  stroke-width="2.16" gorn="0.3.0.51"/>
     <circle r="2.088" id="connector32pin" cx="12.24" cy="55.44" fill="black" stroke="black"  stroke-width="2.16" gorn="0.3.0.52"/>
     <circle r="2.088" id="connector33pin" cx="12.24" cy="48.24" fill="black" stroke="black"  stroke-width="2.16" gorn="0.3.0.53"/>
     <circle r="2.088" id="connector34pin" cx="12.24" cy="41.04" fill="black" stroke="black"  stroke-width="2.16" gorn="0.3.0.54"/>
     <circle r="2.088" id="connector35pin" cx="12.24" cy="33.84" fill="black" stroke="black"  stroke-width="2.16" gorn="0.3.0.55"/>
     <circle r="2.088" id="connector36pin" cx="12.24" cy="26.64" fill="black" stroke="black"  stroke-width="2.16" gorn="0.3.0.56"/>
     <circle r="2.088" id="connector37pin" cx="12.24" cy="19.44" fill="black" stroke="black"  stroke-width="2.16" gorn="0.3.0.57"/>
     <circle r="2.088" id="connector38pin" cx="12.24" cy="12.24" fill="black" stroke="black"  stroke-width="2.16" gorn="0.3.0.58"/>
     <circle r="2.088" id="connector39pin" cx="12.24" cy="5.04" fill="black" stroke="black"  stroke-width="2.16" gorn="0.3.0.59"/>
    </g>
   </g>
  </g>
 </g>
 <g partID="76841">
  <g transform="translate(175.196,50.7306)">
   <g transform="matrix(-1,0,0,-1,0,0)">
    <g id="copper1" >
     <g id="copper0" >
      <circle id="connector0pin" r="1.98" cx="3.6" cy="8.208" fill="black" stroke="black"  stroke-width="2.16"/>
      <circle id="connector1pin" r="1.98" cx="10.8" cy="8.208" fill="black" stroke="black"  stroke-width="2.16"/>
      <circle id="connector2pin" r="1.98" cx="18" cy="8.208" fill="black" stroke="black"  stroke-width="2.16"/>
     </g>
    </g>
   </g>
  </g>
 </g>
 <g partID="76831">
  <g transform="translate(175.196,72.3306)">
   <g transform="matrix(-1,0,0,-1,0,0)">
    <g id="copper1" >
     <g id="copper0" >
      <circle id="connector0pin" r="1.98" cx="3.6" cy="8.208" fill="black" stroke="black"  stroke-width="2.16"/>
      <circle id="connector1pin" r="1.98" cx="10.8" cy="8.208" fill="black" stroke="black"  stroke-width="2.16"/>
      <circle id="connector2pin" r="1.98" cx="18" cy="8.208" fill="black" stroke="black"  stroke-width="2.16"/>
     </g>
    </g>
   </g>
  </g>
 </g>
 <g partID="68781">
  <g transform="translate(175.196,137.131)">
   <g transform="matrix(-1,0,0,-1,0,0)">
    <g id="copper1" >
     <g id="copper0" >
      <circle id="connector0pin" r="1.98" cx="3.6" cy="8.208" fill="black" stroke="black"  stroke-width="2.16"/>
      <circle id="connector1pin" r="1.98" cx="10.8" cy="8.208" fill="black" stroke="black"  stroke-width="2.16"/>
      <circle id="connector2pin" r="1.98" cx="18" cy="8.208" fill="black" stroke="black"  stroke-width="2.16"/>
     </g>
    </g>
   </g>
  </g>
 </g>
 <g partID="67371">
  <g transform="translate(175.196,158.731)">
   <g transform="matrix(-1,0,0,-1,0,0)">
    <g id="copper1" >
     <g id="copper0" >
      <circle id="connector0pin" r="1.98" cx="3.6" cy="8.208" fill="black" stroke="black"  stroke-width="2.16"/>
      <circle id="connector1pin" r="1.98" cx="10.8" cy="8.208" fill="black" stroke="black"  stroke-width="2.16"/>
      <circle id="connector2pin" r="1.98" cx="18" cy="8.208" fill="black" stroke="black"  stroke-width="2.16"/>
     </g>
    </g>
   </g>
  </g>
 </g>
 <g partID="76861">
  <g transform="translate(196.796,34.3146)">
   <g id="copper1" >
    <g id="copper0" >
     <circle id="connector0pin" r="1.98" cx="3.6" cy="8.208" fill="black" stroke="black"  stroke-width="2.16"/>
     <circle id="connector1pin" r="1.98" cx="10.8" cy="8.208" fill="black" stroke="black"  stroke-width="2.16"/>
     <circle id="connector2pin" r="1.98" cx="18" cy="8.208" fill="black" stroke="black"  stroke-width="2.16"/>
    </g>
   </g>
  </g>
 </g>
 <g partID="76851">
  <g transform="translate(196.796,55.9146)">
   <g id="copper1" >
    <g id="copper0" >
     <circle id="connector0pin" r="1.98" cx="3.6" cy="8.208" fill="black" stroke="black"  stroke-width="2.16"/>
     <circle id="connector1pin" r="1.98" cx="10.8" cy="8.208" fill="black" stroke="black"  stroke-width="2.16"/>
     <circle id="connector2pin" r="1.98" cx="18" cy="8.208" fill="black" stroke="black"  stroke-width="2.16"/>
    </g>
   </g>
  </g>
 </g>
 <g partID="68871">
  <g transform="translate(196.796,120.715)">
   <g id="copper1" >
    <g id="copper0" >
     <circle id="connector0pin" r="1.98" cx="3.6" cy="8.208" fill="black" stroke="black"  stroke-width="2.16"/>
     <circle id="connector1pin" r="1.98" cx="10.8" cy="8.208" fill="black" stroke="black"  stroke-width="2.16"/>
     <circle id="connector2pin" r="1.98" cx="18" cy="8.208" fill="black" stroke="black"  stroke-width="2.16"/>
    </g>
   </g>
  </g>
 </g>
 <g partID="68841">
  <g transform="translate(196.796,142.315)">
   <g id="copper1" >
    <g id="copper0" >
     <circle id="connector0pin" r="1.98" cx="3.6" cy="8.208" fill="black" stroke="black"  stroke-width="2.16"/>
     <circle id="connector1pin" r="1.98" cx="10.8" cy="8.208" fill="black" stroke="black"  stroke-width="2.16"/>
     <circle id="connector2pin" r="1.98" cx="18" cy="8.208" fill="black" stroke="black"  stroke-width="2.16"/>
    </g>
   </g>
  </g>
 </g>
 <g partID="76941">
  <g transform="translate(161.696,83.0226)">
   <g transform="matrix(1,0,0,1,0,0)">
    <g id="copper1" >
     <!-- <rect width="55" x="10" y="10" fill="none" height="55" stroke="rgb(255, 191, 0)" stroke-width="20" /> -->
     <circle r="1.98" id="connector0pin" cx="2.7" cy="2.7" fill="black" stroke="black"  stroke-width="2.16"/>
     <circle r="1.98" id="connector1pin" cx="24.3" cy="2.7" fill="black" stroke="black"  stroke-width="2.16"/>
    </g>
   </g>
  </g>
 </g>
 <g partID="76931">
  <g transform="translate(183.296,83.0226)">
   <g transform="matrix(1,0,0,1,0,0)">
    <g id="copper1" >
     <!-- <rect width="55" x="10" y="10" fill="none" height="55" stroke="rgb(255, 191, 0)" stroke-width="20" /> -->
     <circle r="1.98" id="connector0pin" cx="2.7" cy="2.7" fill="black" stroke="black"  stroke-width="2.16"/>
     <circle r="1.98" id="connector1pin" cx="24.3" cy="2.7" fill="black" stroke="black"  stroke-width="2.16"/>
    </g>
   </g>
  </g>
 </g>
 <g partID="76921">
  <g transform="translate(161.696,18.2226)">
   <g transform="matrix(1,0,0,1,0,0)">
    <g id="copper1" >
     <!-- <rect width="55" x="10" y="10" fill="none" height="55" stroke="rgb(255, 191, 0)" stroke-width="20" /> -->
     <circle r="1.98" id="connector0pin" cx="2.7" cy="2.7" fill="black" stroke="black"  stroke-width="2.16"/>
     <circle r="1.98" id="connector1pin" cx="24.3" cy="2.7" fill="black" stroke="black"  stroke-width="2.16"/>
    </g>
   </g>
  </g>
 </g>
 <g partID="76911">
  <g transform="translate(183.296,18.2226)">
   <g transform="matrix(1,0,0,1,0,0)">
    <g id="copper1" >
     <!-- <rect width="55" x="10" y="10" fill="none" height="55" stroke="rgb(255, 191, 0)" stroke-width="20" /> -->
     <circle r="1.98" id="connector0pin" cx="2.7" cy="2.7" fill="black" stroke="black"  stroke-width="2.16"/>
     <circle r="1.98" id="connector1pin" cx="24.3" cy="2.7" fill="black" stroke="black"  stroke-width="2.16"/>
    </g>
   </g>
  </g>
 </g>
 <g partID="70891">
  <g transform="translate(161.696,104.623)">
   <g transform="matrix(1,0,0,1,0,0)">
    <g id="copper1" >
     <!-- <rect width="55" x="10" y="10" fill="none" height="55" stroke="rgb(255, 191, 0)" stroke-width="20" /> -->
     <circle r="1.98" id="connector0pin" cx="2.7" cy="2.7" fill="black" stroke="black"  stroke-width="2.16"/>
     <circle r="1.98" id="connector1pin" cx="24.3" cy="2.7" fill="black" stroke="black"  stroke-width="2.16"/>
    </g>
   </g>
  </g>
 </g>
 <g partID="70881">
  <g transform="translate(183.296,104.623)">
   <g transform="matrix(1,0,0,1,0,0)">
    <g id="copper1" >
     <!-- <rect width="55" x="10" y="10" fill="none" height="55" stroke="rgb(255, 191, 0)" stroke-width="20" /> -->
     <circle r="1.98" id="connector0pin" cx="2.7" cy="2.7" fill="black" stroke="black"  stroke-width="2.16"/>
     <circle r="1.98" id="connector1pin" cx="24.3" cy="2.7" fill="black" stroke="black"  stroke-width="2.16"/>
    </g>
   </g>
  </g>
 </g>
 <g partID="70651">
  <g transform="translate(183.296,169.819)">
   <g transform="matrix(1,0,0,1,0,0)">
    <g id="copper1" >
     <!-- <rect width="55" x="10" y="10" fill="none" height="55" stroke="rgb(255, 191, 0)" stroke-width="20" /> -->
     <circle r="1.98" id="connector0pin" cx="2.7" cy="2.7" fill="black" stroke="black"  stroke-width="2.16"/>
     <circle r="1.98" id="connector1pin" cx="24.3" cy="2.7" fill="black" stroke="black"  stroke-width="2.16"/>
    </g>
   </g>
  </g>
 </g>
 <g partID="854504811">
  <g transform="translate(140.096,9.22256)">
   <g transform="matrix(0,1,-1,0,0,0)">
    <g id="copper1" >
     <!-- <rect width="55" x="35" y="35" fill="none" height="55" stroke="rgb(255, 191, 0)" stroke-width="20" /> -->
     <circle r="1.98" id="connector0pin" cx="4.5" cy="4.5" fill="black" stroke="black"  stroke-width="2.16"/>
     <circle r="1.98" id="connector1pin" cx="11.7" cy="4.5" fill="black" stroke="black"  stroke-width="2.16"/>
    </g>
   </g>
  </g>
 </g>
 <g partID="854504791">
  <g transform="translate(132.896,18.2226)">
   <g transform="matrix(1,0,0,1,0,0)">
    <g id="copper1" >
     <!-- <rect width="55" x="10" y="10" fill="none" height="55" stroke="rgb(255, 191, 0)" stroke-width="20" /> -->
     <circle r="1.98" id="connector0pin" cx="2.7" cy="2.7" fill="black" stroke="black"  stroke-width="2.16"/>
     <circle r="1.98" id="connector1pin" cx="24.3" cy="2.7" fill="black" stroke="black"  stroke-width="2.16"/>
    </g>
   </g>
  </g>
 </g>
 <g partID="854459461">
  <g transform="translate(30.296,97.4226)">
   <g transform="matrix(0,-1,1,0,0,0)">
    <g id="copper1" >
     <!-- <rect width="55" x="35" y="35" fill="none" height="55" stroke="rgb(255, 191, 0)" stroke-width="20" /> -->
     <circle r="1.98" id="connector0pin" cx="4.5" cy="4.5" fill="black" stroke="black"  stroke-width="2.16"/>
     <circle r="1.98" id="connector1pin" cx="11.7" cy="4.5" fill="black" stroke="black"  stroke-width="2.16"/>
    </g>
   </g>
  </g>
 </g>
 <g partID="854459441">
  <g transform="translate(39.296,110.023)">
   <g transform="matrix(0,-1,1,0,0,0)">
    <g id="copper1" >
     <!-- <rect width="55" x="10" y="10" fill="none" height="55" stroke="rgb(255, 191, 0)" stroke-width="20" /> -->
     <circle r="1.98" id="connector0pin" cx="2.7" cy="2.7" fill="black" stroke="black"  stroke-width="2.16"/>
     <circle r="1.98" id="connector1pin" cx="24.3" cy="2.7" fill="black" stroke="black"  stroke-width="2.16"/>
    </g>
   </g>
  </g>
 </g>
 <g partID="70601">
  <g transform="translate(161.696,169.423)">
   <g transform="matrix(1,0,0,1,0,0)">
    <g id="copper1" >
     <!-- <rect width="55" x="10" y="10" fill="none" height="55" stroke="rgb(255, 191, 0)" stroke-width="20" /> -->
     <circle r="1.98" id="connector0pin" cx="2.7" cy="2.7" fill="black" stroke="black"  stroke-width="2.16"/>
     <circle r="1.98" id="connector1pin" cx="24.3" cy="2.7" fill="black" stroke="black"  stroke-width="2.16"/>
    </g>
   </g>
  </g>
 </g>
 <g partID="76951">
  <g transform="translate(180.956,44.6826)">
   <g id="copper1" >
    <g id="copper0" >
     <circle id="connector0pin" r="2.088" cx="5.04" cy="5.04" fill="black" stroke="black"  stroke-width="2.16"/>
     <circle id="connector1pin" r="2.088" cx="5.04" cy="12.24" fill="black" stroke="black"  stroke-width="2.16"/>
    </g>
   </g>
  </g>
 </g>
 <g partID="71141">
  <g transform="translate(180.956,131.083)">
   <g id="copper1" >
    <g id="copper0" >
     <circle id="connector0pin" r="2.088" cx="5.04" cy="5.04" fill="black" stroke="black"  stroke-width="2.16"/>
     <circle id="connector1pin" r="2.088" cx="5.04" cy="12.24" fill="black" stroke="black"  stroke-width="2.16"/>
    </g>
   </g>
  </g>
 </g>
 <g partID="116271">
  <g transform="translate(52.0421,155.302)">
   <g transform="matrix(0,1,-1,0,0,0)">
    <g id="copper1" >
     <g id="copper0" >
      <circle id="connector0pad" r="1.98" cx="20.8462" cy="15.6024" fill="black" stroke="black"  stroke-width="2.16"/>
      <circle id="connector1pad" r="1.98" cx="2.42064" cy="15.6024" fill="black" stroke="black"  stroke-width="2.16"/>
      <circle id="connector2pad" r="1.98" cx="20.8462" cy="2.84616" fill="black" stroke="black"  stroke-width="2.16"/>
      <circle id="connector3pad" r="1.98" cx="2.42064" cy="2.84616" fill="black" stroke="black"  stroke-width="2.16"/>
     </g>
    </g>
   </g>
  </g>
 </g>
 <g partID="126871">
  <g transform="translate(65.756,51.8826)">
   <g id="copper1" >
    <g id="copper0" >
     <rect width="4.176" id="square" height="4.176" x="2.952" fill="black" stroke="black"  stroke-width="2.16" y="2.952"/>
     <circle id="connector0pin" r="2.088" cx="5.04" cy="5.04" fill="black" stroke="black"  stroke-width="2.16"/>
     <circle id="connector1pin" r="2.088" cx="5.04" cy="12.24" fill="black" stroke="black"  stroke-width="2.16"/>
     <circle id="connector2pin" r="2.088" cx="5.04" cy="19.44" fill="black" stroke="black"  stroke-width="2.16"/>
     <circle id="connector3pin" r="2.088" cx="5.04" cy="26.64" fill="black" stroke="black"  stroke-width="2.16"/>
     <circle id="connector4pin" r="2.088" cx="5.04" cy="33.84" fill="black" stroke="black"  stroke-width="2.16"/>
    </g>
   </g>
  </g>
 </g>
 <g partID="854519061">
  <g transform="translate(102.476,67.0026)">
   <g id="copper1"  stroke-width="0">
    <g id="copper0"  stroke-width="0">
     <rect width="3.96" height="3.96" x="2.34" fill="black" stroke="black"  y="2.34" stroke-width="2.16"/>
     <circle id="connector0pin" r="1.98" cx="4.32" cy="4.32" fill="black" stroke="black"  stroke-width="2.16"/>
     <circle id="connector27pin" r="1.98" cx="25.92" cy="4.32" fill="black" stroke="black"  stroke-width="2.16"/>
     <circle id="connector1pin" r="1.98" cx="4.32" cy="11.52" fill="black" stroke="black"  stroke-width="2.16"/>
     <circle id="connector26pin" r="1.98" cx="25.92" cy="11.52" fill="black" stroke="black"  stroke-width="2.16"/>
     <circle id="connector2pin" r="1.98" cx="4.32" cy="18.72" fill="black" stroke="black"  stroke-width="2.16"/>
     <circle id="connector25pin" r="1.98" cx="25.92" cy="18.72" fill="black" stroke="black"  stroke-width="2.16"/>
     <circle id="connector3pin" r="1.98" cx="4.32" cy="25.92" fill="black" stroke="black"  stroke-width="2.16"/>
     <circle id="connector24pin" r="1.98" cx="25.92" cy="25.92" fill="black" stroke="black"  stroke-width="2.16"/>
     <circle id="connector4pin" r="1.98" cx="4.32" cy="33.12" fill="black" stroke="black"  stroke-width="2.16"/>
     <circle id="connector23pin" r="1.98" cx="25.92" cy="33.12" fill="black" stroke="black"  stroke-width="2.16"/>
     <circle id="connector5pin" r="1.98" cx="4.32" cy="40.32" fill="black" stroke="black"  stroke-width="2.16"/>
     <circle id="connector22pin" r="1.98" cx="25.92" cy="40.32" fill="black" stroke="black"  stroke-width="2.16"/>
     <circle id="connector6pin" r="1.98" cx="4.32" cy="47.52" fill="black" stroke="black"  stroke-width="2.16"/>
     <circle id="connector21pin" r="1.98" cx="25.92" cy="47.52" fill="black" stroke="black"  stroke-width="2.16"/>
     <circle id="connector7pin" r="1.98" cx="4.32" cy="54.72" fill="black" stroke="black"  stroke-width="2.16"/>
     <circle id="connector20pin" r="1.98" cx="25.92" cy="54.72" fill="black" stroke="black"  stroke-width="2.16"/>
     <circle id="connector8pin" r="1.98" cx="4.32" cy="61.92" fill="black" stroke="black"  stroke-width="2.16"/>
     <circle id="connector19pin" r="1.98" cx="25.92" cy="61.92" fill="black" stroke="black"  stroke-width="2.16"/>
     <circle id="connector9pin" r="1.98" cx="4.32" cy="69.12" fill="black" stroke="black"  stroke-width="2.16"/>
     <circle id="connector18pin" r="1.98" cx="25.92" cy="69.12" fill="black" stroke="black"  stroke-width="2.16"/>
     <circle id="connector10pin" r="1.98" cx="4.32" cy="76.32" fill="black" stroke="black"  stroke-width="2.16"/>
     <circle id="connector17pin" r="1.98" cx="25.92" cy="76.32" fill="black" stroke="black"  stroke-width="2.16"/>
     <circle id="connector11pin" r="1.98" cx="4.32" cy="83.52" fill="black" stroke="black"  stroke-width="2.16"/>
     <circle id="connector16pin" r="1.98" cx="25.92" cy="83.52" fill="black" stroke="black"  stroke-width="2.16"/>
     <circle id="connector12pin" r="1.98" cx="4.32" cy="90.72" fill="black" stroke="black"  stroke-width="2.16"/>
     <circle id="connector15pin" r="1.98" cx="25.92" cy="90.72" fill="black" stroke="black"  stroke-width="2.16"/>
     <circle id="connector13pin" r="1.98" cx="4.32" cy="97.92" fill="black" stroke="black"  stroke-width="2.16"/>
     <circle id="connector14pin" r="1.98" cx="25.92" cy="97.92" fill="black" stroke="black"  stroke-width="2.16"/>
    </g>
   </g>
  </g>
 </g>
 <g partID="854531261">
  <g transform="translate(85.7,126.475)">
   <g id="copper1" >
    <g id="copper0" >
     <rect width="3.456" height="3.456" x="4.968" fill="black" stroke="black"  y="0.72" stroke-width="2.232"/>
     <circle id="connector0pad" r="1.728" cx="6.696" cy="2.448" fill="black" stroke="black"  stroke-width="2.232"/>
     <circle id="connector1pad" r="1.728" cx="6.696" cy="9.648" fill="black" stroke="black"  stroke-width="2.232"/>
    </g>
   </g>
  </g>
 </g>
 <g partID="854532671">
  <g transform="translate(88.0893,131.803)">
   <g transform="matrix(-1,0,0,-1,0,0)">
    <g id="copper1" >
     <circle id="connector0pin" r="1.8" cx="2.88" cy="2.88" fill="black" stroke="black"  stroke-width="2.16"/>
     <circle id="connector1pin" r="1.8" cx="10.0933" cy="2.88" fill="black" stroke="black"  stroke-width="2.16"/>
    </g>
   </g>
  </g>
 </g>
 <g partID="854532691">
  <g transform="translate(88.0893,139.003)">
   <g transform="matrix(-1,0,0,-1,0,0)">
    <g id="copper1" >
     <circle id="connector0pin" r="1.8" cx="2.88" cy="2.88" fill="black" stroke="black"  stroke-width="2.16"/>
     <circle id="connector1pin" r="1.8" cx="10.0933" cy="2.88" fill="black" stroke="black"  stroke-width="2.16"/>
    </g>
   </g>
  </g>
 </g>
 <g partID="854541941">
  <g transform="translate(95.096,59.6226)">
   <g transform="matrix(1,0,0,1,0,0)">
    <g id="copper1" >
     <!-- <rect width="55" x="35" y="35" fill="none" height="55" stroke="rgb(255, 191, 0)" stroke-width="20" /> -->
     <circle r="1.98" id="connector0pin" cx="4.5" cy="4.5" fill="black" stroke="black"  stroke-width="2.16"/>
     <circle r="1.98" id="connector1pin" cx="11.7" cy="4.5" fill="black" stroke="black"  stroke-width="2.16"/>
    </g>
   </g>
  </g>
 </g>
 <g partID="854547831">
  <g transform="translate(1.244,80.9706)">
   <g id="copper1" >
    <circle r="1.98" id="connector0pad" cx="4.752" cy="4.752" fill="black" stroke="black"  stroke-width="2.16"/>
    <circle r="1.98" id="connector1pad" cx="69.552" cy="4.752" fill="black" stroke="black"  stroke-width="2.16"/>
   </g>
  </g>
 </g>
 <g partID="854548401">
  <g transform="translate(1.244,30.5706)">
   <g id="copper1" >
    <circle r="1.98" id="connector0pad" cx="4.752" cy="4.752" fill="black" stroke="black"  stroke-width="2.16"/>
    <circle r="1.98" id="connector1pad" cx="69.552" cy="33.552" fill="black" stroke="black"  stroke-width="2.16"/>
   </g>
  </g>
 </g>
 <g partID="854549121">
  <g transform="translate(66.044,59.3706)">
   <g id="copper1" >
    <circle r="1.98" id="connector0pad" cx="4.752" cy="4.752" fill="black" stroke="black"  stroke-width="2.16"/>
    <circle r="1.98" id="connector1pad" cx="62.352" cy="19.152" fill="black" stroke="black"  stroke-width="2.16"/>
   </g>
  </g>
 </g>
 <g partID="854549361">
  <g transform="translate(1.244,37.7706)">
   <g id="copper1" >
    <circle r="1.98" id="connector0pad" cx="4.752" cy="4.752" fill="black" stroke="black"  stroke-width="2.16"/>
    <circle r="1.98" id="connector1pad" cx="69.552" cy="19.152" fill="black" stroke="black"  stroke-width="2.16"/>
   </g>
  </g>
 </g>
 <g partID="854549581">
  <g transform="translate(66.044,52.1706)">
   <g id="copper1" >
    <circle r="1.98" id="connector0pad" cx="4.752" cy="4.752" fill="black" stroke="black"  stroke-width="2.16"/>
    <circle r="1.98" id="connector1pad" cx="62.352" cy="19.152" fill="black" stroke="black"  stroke-width="2.16"/>
   </g>
  </g>
 </g>
 <g partID="854550441">
  <g transform="translate(102.044,109.771)">
   <g id="copper1" >
    <circle r="1.98" id="connector0pad" cx="4.752" cy="11.952" fill="black" stroke="black"  stroke-width="2.16"/>
    <circle r="1.98" id="connector1pad" cx="26.352" cy="4.752" fill="black" stroke="black"  stroke-width="2.16"/>
   </g>
  </g>
 </g>
 <g partID="854554431">
  <g transform="translate(74.9651,169.098)">
   <g id="copper1" >
    <circle r="0.992124" id="connector0pin" cx="3.01733" cy="3.01733" fill="black" stroke="black"  stroke-width="1.57039"/>
   </g>
  </g>
 </g>
</svg>
