<?xml version='1.0' encoding='UTF-8' standalone='no'?>
<!-- Created with Fritzing (http://www.fritzing.org/) -->
<svg xmlns="http://www.w3.org/2000/svg" y="0in" viewBox="0 0 221.206 186.583" x="0in" version="1.2" xmlns:svg="http://www.w3.org/2000/svg" baseProfile="tiny" width="3.07231in"  height="2.59143in">
 <g transform="matrix(-1, 0, 0, 1, 221.206, 0)">
  <g partID="57640">
   <g id="board" >
    <rect y="0.288" stroke="black" stroke-width="0.5" x="0.288" fill-opacity="0.5" id="boardoutline" width="220.63" fill="none"  height="186.007"/>
   </g>
  </g>
  <g partID="145410">
   <g transform="translate(20.4557,-20.4816)">
    <g id="board" />
   </g>
  </g>
  <g partID="854335990">
   <g transform="translate(22.1234,5.2604)">
    <g transform="matrix(0,1,-1,0,0,0)">
     <g id="board" />
    </g>
   </g>
  </g>
  <g partID="67312">
   <g transform="translate(146.396,182.923)">
    <g transform="matrix(-1,0,0,-1,0,0)">
     <g id="copper1" >
      <g id="copper0" >
       <g stroke="black" cy="10.8" stroke-width="1.224" r="1.908" id="0" fill="none" cx="3.6" />
       <g y="8.892" stroke="black" x="1.692" stroke-width="1.224" id="1" width="3.814" fill="none"  height="3.816"/>
       <g stroke="black" cy="18" stroke-width="1.224" r="1.908" id="2" fill="none" cx="3.6" />
       <g stroke="black" cy="25.2" stroke-width="1.224" r="1.908" id="3" fill="none" cx="3.6" />
       <g stroke="black" cy="32.4" stroke-width="1.224" r="1.908" id="4" fill="none" cx="3.6" />
       <g stroke="black" cy="39.6" stroke-width="1.224" r="1.908" id="5" fill="none" cx="3.6" />
       <g stroke="black" cy="46.8" stroke-width="1.224" r="1.908" id="6" fill="none" cx="3.6" />
       <g stroke="black" cy="54" stroke-width="1.224" r="1.908" id="7" fill="none" cx="3.6" />
       <g stroke="black" cy="61.2" stroke-width="1.224" r="1.908" id="8" fill="none" cx="3.6" />
       <g stroke="black" cy="68.4" stroke-width="1.224" r="1.908" id="9" fill="none" cx="3.6" />
       <g stroke="black" cy="75.6" stroke-width="1.224" r="1.908" id="10" fill="none" cx="3.6" />
       <g stroke="black" cy="82.8" stroke-width="1.224" r="1.908" id="11" fill="none" cx="3.6" />
       <g stroke="black" cy="90" stroke-width="1.224" r="1.908" id="12" fill="none" cx="3.6" />
       <g stroke="black" cy="97.2" stroke-width="1.224" r="1.908" id="13" fill="none" cx="3.6" />
       <g stroke="black" cy="104.4" stroke-width="1.224" r="1.908" id="14" fill="none" cx="3.6" />
       <g stroke="black" cy="111.6" stroke-width="1.224" r="1.908" id="15" fill="none" cx="3.6" />
       <g stroke="black" cy="10.8" stroke-width="1.224" r="1.908" id="16" fill="none" cx="46.8" />
       <g stroke="black" cy="18" stroke-width="1.224" r="1.908" id="17" fill="none" cx="46.8" />
       <g stroke="black" cy="25.2" stroke-width="1.224" r="1.908" id="18" fill="none" cx="46.8" />
       <g stroke="black" cy="32.4" stroke-width="1.224" r="1.908" id="19" fill="none" cx="46.8" />
       <g stroke="black" cy="39.6" stroke-width="1.224" r="1.908" id="20" fill="none" cx="46.8" />
       <g stroke="black" cy="46.8" stroke-width="1.224" r="1.908" id="21" fill="none" cx="46.8" />
       <g stroke="black" cy="54" stroke-width="1.224" r="1.908" id="22" fill="none" cx="46.8" />
       <g stroke="black" cy="61.2" stroke-width="1.224" r="1.908" id="23" fill="none" cx="46.8" />
       <g stroke="black" cy="68.4" stroke-width="1.224" r="1.908" id="24" fill="none" cx="46.8" />
       <g stroke="black" cy="75.6" stroke-width="1.224" r="1.908" id="25" fill="none" cx="46.8" />
       <g stroke="black" cy="82.8" stroke-width="1.224" r="1.908" id="26" fill="none" cx="46.8" />
       <g stroke="black" cy="90" stroke-width="1.224" r="1.908" id="27" fill="none" cx="46.8" />
       <g stroke="black" cy="97.2" stroke-width="1.224" r="1.908" id="28" fill="none" cx="46.8" />
       <g stroke="black" cy="104.4" stroke-width="1.224" r="1.908" id="29" fill="none" cx="46.8" />
       <g stroke="black" cy="111.6" stroke-width="1.224" r="1.908" id="30" fill="none" cx="46.8" />
      </g>
     </g>
    </g>
   </g>
  </g>
  <g partID="76842">
   <g transform="translate(182.396,51.1266)">
    <g transform="matrix(-1,0,0,-1,0,0)">
     <g id="copper1" >
      <g id="copper0" >
       <g stroke="black" cy="8.208" r="1.98" stroke-width="1.44" id="31" cx="3.6" fill="none" />
       <g stroke="black" cy="8.208" r="1.98" stroke-width="1.44" id="32" cx="10.8" fill="none" />
       <g stroke="black" cy="8.208" r="1.98" stroke-width="1.44" id="33" cx="18" fill="none" />
      </g>
     </g>
    </g>
   </g>
  </g>
  <g partID="76832">
   <g transform="translate(182.396,72.3306)">
    <g transform="matrix(-1,0,0,-1,0,0)">
     <g id="copper1" >
      <g id="copper0" >
       <g stroke="black" cy="8.208" r="1.98" stroke-width="1.44" id="34" cx="3.6" fill="none" />
       <g stroke="black" cy="8.208" r="1.98" stroke-width="1.44" id="35" cx="10.8" fill="none" />
       <g stroke="black" cy="8.208" r="1.98" stroke-width="1.44" id="36" cx="18" fill="none" />
      </g>
     </g>
    </g>
   </g>
  </g>
  <g partID="68782">
   <g transform="translate(182.396,137.131)">
    <g transform="matrix(-1,0,0,-1,0,0)">
     <g id="copper1" >
      <g id="copper0" >
       <g stroke="black" cy="8.208" r="1.98" stroke-width="1.44" id="37" cx="3.6" fill="none" />
       <g stroke="black" cy="8.208" r="1.98" stroke-width="1.44" id="38" cx="10.8" fill="none" />
       <g stroke="black" cy="8.208" r="1.98" stroke-width="1.44" id="39" cx="18" fill="none" />
      </g>
     </g>
    </g>
   </g>
  </g>
  <g partID="67372">
   <g transform="translate(182.396,158.731)">
    <g transform="matrix(-1,0,0,-1,0,0)">
     <g id="copper1" >
      <g id="copper0" >
       <g stroke="black" cy="8.208" r="1.98" stroke-width="1.44" id="40" cx="3.6" fill="none" />
       <g stroke="black" cy="8.208" r="1.98" stroke-width="1.44" id="41" cx="10.8" fill="none" />
       <g stroke="black" cy="8.208" r="1.98" stroke-width="1.44" id="42" cx="18" fill="none" />
      </g>
     </g>
    </g>
   </g>
  </g>
  <g partID="67512">
   <g transform="translate(22.5559,1.48259)">
    <g id="copper1" >
     <g id="copper0" >
      <g y="2.952" stroke="black" stroke-width="1.44" x="2.952" id="43" width="4.176" fill="none"  height="4.176"/>
      <g stroke="black" cy="5.04" r="2.088" stroke-width="1.44" id="44" cx="5.04" fill="none" />
      <g stroke="black" cy="12.24" r="2.088" stroke-width="1.44" id="45" cx="5.04" fill="none" />
      <g stroke="black" cy="19.44" r="2.088" stroke-width="1.44" id="46" cx="5.04" fill="none" />
      <g stroke="black" cy="26.64" r="2.088" stroke-width="1.44" id="47" cx="5.04" fill="none" />
      <g stroke="black" cy="33.84" r="2.088" stroke-width="1.44" id="48" cx="5.04" fill="none" />
      <g stroke="black" cy="41.04" r="2.088" stroke-width="1.44" id="49" cx="5.04" fill="none" />
      <g stroke="black" cy="48.24" r="2.088" stroke-width="1.44" id="50" cx="5.04" fill="none" />
      <g stroke="black" cy="55.44" r="2.088" stroke-width="1.44" id="51" cx="5.04" fill="none" />
     </g>
    </g>
   </g>
  </g>
  <g partID="76862">
   <g transform="translate(189.596,34.7106)">
    <g id="copper1" >
     <g id="copper0" >
      <g stroke="black" cy="8.208" r="1.98" stroke-width="1.44" id="52" cx="3.6" fill="none" />
      <g stroke="black" cy="8.208" r="1.98" stroke-width="1.44" id="53" cx="10.8" fill="none" />
      <g stroke="black" cy="8.208" r="1.98" stroke-width="1.44" id="54" cx="18" fill="none" />
     </g>
    </g>
   </g>
  </g>
  <g partID="76852">
   <g transform="translate(189.596,55.9146)">
    <g id="copper1" >
     <g id="copper0" >
      <g stroke="black" cy="8.208" r="1.98" stroke-width="1.44" id="55" cx="3.6" fill="none" />
      <g stroke="black" cy="8.208" r="1.98" stroke-width="1.44" id="56" cx="10.8" fill="none" />
      <g stroke="black" cy="8.208" r="1.98" stroke-width="1.44" id="57" cx="18" fill="none" />
     </g>
    </g>
   </g>
  </g>
  <g partID="68872">
   <g transform="translate(189.596,120.715)">
    <g id="copper1" >
     <g id="copper0" >
      <g stroke="black" cy="8.208" r="1.98" stroke-width="1.44" id="58" cx="3.6" fill="none" />
      <g stroke="black" cy="8.208" r="1.98" stroke-width="1.44" id="59" cx="10.8" fill="none" />
      <g stroke="black" cy="8.208" r="1.98" stroke-width="1.44" id="60" cx="18" fill="none" />
     </g>
    </g>
   </g>
  </g>
  <g partID="68842">
   <g transform="translate(189.596,142.315)">
    <g id="copper1" >
     <g id="copper0" >
      <g stroke="black" cy="8.208" r="1.98" stroke-width="1.44" id="61" cx="3.6" fill="none" />
      <g stroke="black" cy="8.208" r="1.98" stroke-width="1.44" id="62" cx="10.8" fill="none" />
      <g stroke="black" cy="8.208" r="1.98" stroke-width="1.44" id="63" cx="18" fill="none" />
     </g>
    </g>
   </g>
  </g>
  <g partID="76902">
   <g transform="translate(190.172,74.9226)">
    <g id="copper1" >
     <g id="copper0" >
      <g y="1.368" stroke="black" stroke-width="1.44" x="0.72" id="64" width="4.464" fill="none"  height="4.464"/>
      <g stroke="black" cy="3.6" r="2.232" stroke-width="1.44" id="65" cx="3.024" fill="none" />
      <g stroke="black" cy="3.6" r="2.232" stroke-width="1.44" id="66" cx="24.48" fill="none" />
     </g>
    </g>
   </g>
  </g>
  <g partID="76892">
   <g transform="translate(154.172,74.9226)">
    <g id="copper1" >
     <g id="copper0" >
      <g y="1.368" stroke="black" stroke-width="1.44" x="0.72" id="67" width="4.464" fill="none"  height="4.464"/>
      <g stroke="black" cy="3.6" r="2.232" stroke-width="1.44" id="68" cx="3.024" fill="none" />
      <g stroke="black" cy="3.6" r="2.232" stroke-width="1.44" id="69" cx="24.48" fill="none" />
     </g>
    </g>
   </g>
  </g>
  <g partID="76882">
   <g transform="translate(154.172,24.9186)">
    <g id="copper1" >
     <g id="copper0" >
      <g y="1.368" stroke="black" stroke-width="1.44" x="0.72" id="70" width="4.464" fill="none"  height="4.464"/>
      <g stroke="black" cy="3.6" r="2.232" stroke-width="1.44" id="71" cx="3.024" fill="none" />
      <g stroke="black" cy="3.6" r="2.232" stroke-width="1.44" id="72" cx="24.48" fill="none" />
     </g>
    </g>
   </g>
  </g>
  <g partID="76872">
   <g transform="translate(190.172,24.9186)">
    <g id="copper1" >
     <g id="copper0" >
      <g y="1.368" stroke="black" stroke-width="1.44" x="0.72" id="73" width="4.464" fill="none"  height="4.464"/>
      <g stroke="black" cy="3.6" r="2.232" stroke-width="1.44" id="74" cx="3.024" fill="none" />
      <g stroke="black" cy="3.6" r="2.232" stroke-width="1.44" id="75" cx="24.48" fill="none" />
     </g>
    </g>
   </g>
  </g>
  <g partID="69022">
   <g transform="translate(190.172,110.923)">
    <g id="copper1" >
     <g id="copper0" >
      <g y="1.368" stroke="black" stroke-width="1.44" x="0.72" id="76" width="4.464" fill="none"  height="4.464"/>
      <g stroke="black" cy="3.6" r="2.232" stroke-width="1.44" id="77" cx="3.024" fill="none" />
      <g stroke="black" cy="3.6" r="2.232" stroke-width="1.44" id="78" cx="24.48" fill="none" />
     </g>
    </g>
   </g>
  </g>
  <g partID="69002">
   <g transform="translate(190.172,161.719)">
    <g id="copper1" >
     <g id="copper0" >
      <g y="1.368" stroke="black" stroke-width="1.44" x="0.72" id="79" width="4.464" fill="none"  height="4.464"/>
      <g stroke="black" cy="3.6" r="2.232" stroke-width="1.44" id="80" cx="3.024" fill="none" />
      <g stroke="black" cy="3.6" r="2.232" stroke-width="1.44" id="81" cx="24.48" fill="none" />
     </g>
    </g>
   </g>
  </g>
  <g partID="68982">
   <g transform="translate(154.172,110.923)">
    <g id="copper1" >
     <g id="copper0" >
      <g y="1.368" stroke="black" stroke-width="1.44" x="0.72" id="82" width="4.464" fill="none"  height="4.464"/>
      <g stroke="black" cy="3.6" r="2.232" stroke-width="1.44" id="83" cx="3.024" fill="none" />
      <g stroke="black" cy="3.6" r="2.232" stroke-width="1.44" id="84" cx="24.48" fill="none" />
     </g>
    </g>
   </g>
  </g>
  <g partID="68932">
   <g transform="translate(154.172,161.719)">
    <g id="copper1" >
     <g id="copper0" >
      <g y="1.368" stroke="black" stroke-width="1.44" x="0.72" id="85" width="4.464" fill="none"  height="4.464"/>
      <g stroke="black" cy="3.6" r="2.232" stroke-width="1.44" id="86" cx="3.024" fill="none" />
      <g stroke="black" cy="3.6" r="2.232" stroke-width="1.44" id="87" cx="24.48" fill="none" />
     </g>
    </g>
   </g>
  </g>
  <g partID="76942">
   <g transform="translate(168.896,82.6266)">
    <g transform="matrix(1,0,0,1,0,0)">
     <g id="copper1" >
      <!-- <rect width="55" x="10" y="10" fill="none" height="55" stroke="rgb(255, 191, 0)" stroke-width="20" /> -->
      <g stroke="black" cy="2.7" r="1.98" stroke-width="1.44" id="88" fill="none" cx="2.7" />
      <g stroke="black" cy="2.7" r="1.98" stroke-width="1.44" id="89" fill="none" cx="17.1" />
     </g>
    </g>
   </g>
  </g>
  <g partID="76932">
   <g transform="translate(183.296,83.0226)">
    <g transform="matrix(1,0,0,1,0,0)">
     <g id="copper1" >
      <!-- <rect width="55" x="10" y="10" fill="none" height="55" stroke="rgb(255, 191, 0)" stroke-width="20" /> -->
      <g stroke="black" cy="2.7" r="1.98" stroke-width="1.44" id="90" fill="none" cx="2.7" />
      <g stroke="black" cy="2.7" r="1.98" stroke-width="1.44" id="91" fill="none" cx="17.1" />
     </g>
    </g>
   </g>
  </g>
  <g partID="76922">
   <g transform="translate(168.896,18.6186)">
    <g transform="matrix(1,0,0,1,0,0)">
     <g id="copper1" >
      <!-- <rect width="55" x="10" y="10" fill="none" height="55" stroke="rgb(255, 191, 0)" stroke-width="20" /> -->
      <g stroke="black" cy="2.7" r="1.98" stroke-width="1.44" id="92" fill="none" cx="2.7" />
      <g stroke="black" cy="2.7" r="1.98" stroke-width="1.44" id="93" fill="none" cx="17.1" />
     </g>
    </g>
   </g>
  </g>
  <g partID="76912">
   <g transform="translate(183.296,18.6186)">
    <g transform="matrix(1,0,0,1,0,0)">
     <g id="copper1" >
      <!-- <rect width="55" x="10" y="10" fill="none" height="55" stroke="rgb(255, 191, 0)" stroke-width="20" /> -->
      <g stroke="black" cy="2.7" r="1.98" stroke-width="1.44" id="94" fill="none" cx="2.7" />
      <g stroke="black" cy="2.7" r="1.98" stroke-width="1.44" id="95" fill="none" cx="17.1" />
     </g>
    </g>
   </g>
  </g>
  <g partID="70892">
   <g transform="translate(168.896,104.623)">
    <g transform="matrix(1,0,0,1,0,0)">
     <g id="copper1" >
      <!-- <rect width="55" x="10" y="10" fill="none" height="55" stroke="rgb(255, 191, 0)" stroke-width="20" /> -->
      <g stroke="black" cy="2.7" r="1.98" stroke-width="1.44" id="96" fill="none" cx="2.7" />
      <g stroke="black" cy="2.7" r="1.98" stroke-width="1.44" id="97" fill="none" cx="17.1" />
     </g>
    </g>
   </g>
  </g>
  <g partID="70882">
   <g transform="translate(183.296,104.623)">
    <g transform="matrix(1,0,0,1,0,0)">
     <g id="copper1" >
      <!-- <rect width="55" x="10" y="10" fill="none" height="55" stroke="rgb(255, 191, 0)" stroke-width="20" /> -->
      <g stroke="black" cy="2.7" r="1.98" stroke-width="1.44" id="98" fill="none" cx="2.7" />
      <g stroke="black" cy="2.7" r="1.98" stroke-width="1.44" id="99" fill="none" cx="17.1" />
     </g>
    </g>
   </g>
  </g>
  <g partID="70652">
   <g transform="translate(183.296,169.819)">
    <g transform="matrix(1,0,0,1,0,0)">
     <g id="copper1" >
      <!-- <rect width="55" x="10" y="10" fill="none" height="55" stroke="rgb(255, 191, 0)" stroke-width="20" /> -->
      <g stroke="black" cy="2.7" r="1.98" stroke-width="1.44" id="100" fill="none" cx="2.7" />
      <g stroke="black" cy="2.7" r="1.98" stroke-width="1.44" id="101" fill="none" cx="17.1" />
     </g>
    </g>
   </g>
  </g>
  <g partID="70602">
   <g transform="translate(168.896,169.423)">
    <g transform="matrix(1,0,0,1,0,0)">
     <g id="copper1" >
      <!-- <rect width="55" x="10" y="10" fill="none" height="55" stroke="rgb(255, 191, 0)" stroke-width="20" /> -->
      <g stroke="black" cy="2.7" r="1.98" stroke-width="1.44" id="102" fill="none" cx="2.7" />
      <g stroke="black" cy="2.7" r="1.98" stroke-width="1.44" id="103" fill="none" cx="17.1" />
     </g>
    </g>
   </g>
  </g>
  <g partID="76952">
   <g transform="translate(180.956,44.6826)">
    <g id="copper1" >
     <g id="copper0" >
      <g stroke="black" cy="5.04" r="2.088" stroke-width="1.44" id="104" cx="5.04" fill="none" />
      <g stroke="black" cy="12.24" r="2.088" stroke-width="1.44" id="105" cx="5.04" fill="none" />
     </g>
    </g>
   </g>
  </g>
  <g partID="71142">
   <g transform="translate(180.956,131.083)">
    <g id="copper1" >
     <g id="copper0" >
      <g stroke="black" cy="5.04" r="2.088" stroke-width="1.44" id="106" cx="5.04" fill="none" />
      <g stroke="black" cy="12.24" r="2.088" stroke-width="1.44" id="107" cx="5.04" fill="none" />
     </g>
    </g>
   </g>
  </g>
  <g partID="116272">
   <g transform="translate(43.1983,155.302)">
    <g transform="matrix(0,1,-1,0,0,0)">
     <g id="copper1" >
      <g id="copper0" >
       <g stroke="black" cy="15.6024" r="1.98" stroke-width="1.44" id="108" cx="20.8462" fill="none" />
       <g stroke="black" cy="15.6024" r="1.98" stroke-width="1.44" id="109" cx="2.42064" fill="none" />
       <g stroke="black" cy="2.84616" r="1.98" stroke-width="1.44" id="110" cx="20.8462" fill="none" />
       <g stroke="black" cy="2.84616" r="1.98" stroke-width="1.44" id="111" cx="2.42064" fill="none" />
      </g>
     </g>
    </g>
   </g>
  </g>
  <g partID="118442">
   <g transform="translate(51.3559,152.683)">
    <g id="copper1" >
     <g id="copper0" >
      <g y="2.952" stroke="black" stroke-width="1.44" x="2.952" id="112" width="4.176" fill="none"  height="4.176"/>
      <g stroke="black" cy="5.04" r="2.088" stroke-width="1.44" id="113" cx="5.04" fill="none" />
      <g stroke="black" cy="12.24" r="2.088" stroke-width="1.44" id="114" cx="5.04" fill="none" />
      <g stroke="black" cy="19.44" r="2.088" stroke-width="1.44" id="115" cx="5.04" fill="none" />
     </g>
    </g>
   </g>
  </g>
  <g partID="126872">
   <g transform="translate(37.1023,80.8132)">
    <g id="copper1" >
     <g id="copper0" >
      <g y="2.952" stroke="black" stroke-width="1.44" x="2.952" id="116" width="4.176" fill="none"  height="4.176"/>
      <g stroke="black" cy="5.04" r="2.088" stroke-width="1.44" id="117" cx="5.04" fill="none" />
      <g stroke="black" cy="12.24" r="2.088" stroke-width="1.44" id="118" cx="5.04" fill="none" />
      <g stroke="black" cy="19.44" r="2.088" stroke-width="1.44" id="119" cx="5.04" fill="none" />
      <g stroke="black" cy="26.64" r="2.088" stroke-width="1.44" id="120" cx="5.04" fill="none" />
      <g stroke="black" cy="33.84" r="2.088" stroke-width="1.44" id="121" cx="5.04" fill="none" />
     </g>
    </g>
   </g>
  </g>
  <g partID="135162">
   <g transform="translate(110.036,20.5626)">
    <g id="copper1" >
     <g id="copper0" >
      <g y="5.58" stroke="black" x="1.98" stroke-width="1.44" id="122" width="3.96" fill="none"  height="3.96"/>
      <g stroke="black" cy="7.56" r="1.98" stroke-width="1.44" id="123" cx="3.96" fill="none" />
      <g stroke="black" cy="7.56" r="1.98" stroke-width="1.44" id="124" cx="11.16" fill="none" />
     </g>
    </g>
   </g>
  </g>
  <g partID="136482">
   <g transform="translate(111.103,54.0426)">
    <g transform="matrix(1,0,0,1,0,0)">
     <g id="copper1" >
      <g stroke="black" cy="2.88" r="1.8" stroke-width="1.44" id="125" cx="2.88" fill="none" />
      <g stroke="black" cy="2.88" r="1.8" stroke-width="1.44" id="126" cx="10.0933" fill="none" />
     </g>
    </g>
   </g>
  </g>
  <g partID="149602">
   <g transform="translate(73.3775,-21.65)">
    <g transform="matrix(0,1,-1,0,0,0)">
     <g id="copper1" >
      <g y="14.8819" stroke-linecap="round" stroke="none" x="15.5906" stroke-width="0" connectorname="D+" id="127" width="7.08662" fill="black"  height="1.41732"/>
      <g y="12.6142" stroke-linecap="round" stroke="none" x="15.5906" stroke-width="0" connectorname="D-" id="128" width="7.08662" fill="black"  height="1.41732"/>
      <g y="19.4173" stroke-linecap="round" stroke="none" x="15.5906" stroke-width="0" connectorname="GND" id="129" width="7.08662" fill="black"  height="1.41732"/>
      <rect y="17.1496" stroke-linecap="round" stroke="none" x="15.5906" stroke-width="0" connectorname="ID" id="130" width="7.08662" fill="black"  height="1.41732"/>
      <rect y="25.5118" stroke-linecap="round" stroke="none" x="0" stroke-width="0" connectorname="G1" id="131" width="7.08662" fill="black"  height="5.66929"/>
      <rect y="0" stroke-linecap="round" stroke="none" x="0" stroke-width="0" connectorname="G2" id="132" width="7.08662" fill="black"  height="5.66929"/>
      <rect y="25.5118" stroke-linecap="round" stroke="none" x="15.5906" stroke-width="0" connectorname="G4" id="133" width="7.08662" fill="black"  height="5.66929"/>
      <rect y="0" stroke-linecap="round" stroke="none" x="15.5906" stroke-width="0" connectorname="G3" id="134" width="7.08662" fill="black"  height="5.66929"/>
      <g y="10.3465" stroke-linecap="round" stroke="none" x="15.5906" stroke-width="0" connectorname="VBUS" id="135" width="7.08662" fill="black"  height="1.41732"/>
      <g id="copper0" >
       <circle stroke="black" cy="9.35433" r="1.20473" stroke-width="0.141732" connectorname="H1" id="136" cx="12.0473" fill="none" />
       <circle stroke="black" cy="21.8268" r="1.20473" stroke-width="0.141732" connectorname="H2" id="137" cx="12.0473" fill="none" />
      </g>
     </g>
    </g>
   </g>
  </g>
  <g partID="150560">
   <g transform="translate(90.355,4.65171)">
    <g transform="matrix(0,1,-1,0,0,0)">
     <g id="copper1" >
      <rect y="13.0394" stroke-linecap="round" stroke="none" x="7.65355" stroke-width="0" connectorname="1" id="138" width="2.83465" fill="black"  height="13.0394"/>
      <rect y="13.0394" stroke-linecap="round" stroke="none" x="13.3228" stroke-width="0" connectorname="2" id="139" width="2.83465" fill="black"  height="13.0394"/>
      <rect y="-2.51767e-15" stroke-linecap="round" stroke="none" x="0" stroke-width="0" connectorname="NC1" id="140" width="4.53544" fill="black"  height="9.6378"/>
      <rect y="-2.51767e-15" stroke-linecap="round" stroke="none" x="19.2756" stroke-width="0" connectorname="NC2" id="141" width="4.53544" fill="black"  height="9.6378"/>
      <g id="142" />
     </g>
    </g>
   </g>
  </g>
  <g partID="854344582">
   <g transform="translate(133.436,1.48259)">
    <g transform="matrix(0,1,-1,0,0,0)">
     <g id="copper1" >
      <g id="copper0" >
       <g stroke="black" cy="5.04" r="2.088" stroke-width="1.44" id="143" cx="5.04" fill="none" />
       <g stroke="black" cy="12.24" r="2.088" stroke-width="1.44" id="144" cx="5.04" fill="none" />
       <g stroke="black" cy="19.44" r="2.088" stroke-width="1.44" id="145" cx="5.04" fill="none" />
      </g>
     </g>
    </g>
   </g>
  </g>
  <g partID="854344872">
   <g transform="translate(1.10231,23.2132)">
    <g id="copper1" gorn="0.2" >
     <g id="copper0" gorn="0.2.0" >
      <g stroke="black" cy="5.04" r="2.088" stroke-width="1.44" id="146" gorn="0.2.0.0" cx="5.04" fill="none" />
      <g stroke="black" cy="12.24" r="2.088" stroke-width="1.44" id="147" gorn="0.2.0.1" cx="5.04" fill="none" />
      <g stroke="black" cy="19.44" r="2.088" stroke-width="1.44" id="148" gorn="0.2.0.2" cx="5.04" fill="none" />
      <g stroke="black" cy="26.64" r="2.088" stroke-width="1.44" id="149" gorn="0.2.0.3" cx="5.04" fill="none" />
      <g stroke="black" cy="33.84" r="2.088" stroke-width="1.44" id="150" gorn="0.2.0.4" cx="5.04" fill="none" />
      <g stroke="black" cy="41.04" r="2.088" stroke-width="1.44" id="151" gorn="0.2.0.5" cx="5.04" fill="none" />
      <g stroke="black" cy="48.24" r="2.088" stroke-width="1.44" id="152" gorn="0.2.0.6" cx="5.04" fill="none" />
      <g stroke="black" cy="55.44" r="2.088" stroke-width="1.44" id="153" gorn="0.2.0.7" cx="5.04" fill="none" />
      <g stroke="black" cy="62.64" r="2.088" stroke-width="1.44" id="154" gorn="0.2.0.8" cx="5.04" fill="none" />
      <g stroke="black" cy="69.84" r="2.088" stroke-width="1.44" id="155" gorn="0.2.0.9" cx="5.04" fill="none" />
      <g stroke="black" cy="77.04" r="2.088" stroke-width="1.44" id="156" gorn="0.2.0.10" cx="5.04" fill="none" />
      <g stroke="black" cy="84.24" r="2.088" stroke-width="1.44" id="157" gorn="0.2.0.11" cx="5.04" fill="none" />
      <g stroke="black" cy="91.44" r="2.088" stroke-width="1.44" id="158" gorn="0.2.0.12" cx="5.04" fill="none" />
      <g stroke="black" cy="98.64" r="2.088" stroke-width="1.44" id="159" gorn="0.2.0.13" cx="5.04" fill="none" />
      <g stroke="black" cy="105.84" r="2.088" stroke-width="1.44" id="160" gorn="0.2.0.14" cx="5.04" fill="none" />
      <g stroke="black" cy="113.04" r="2.088" stroke-width="1.44" id="161" gorn="0.2.0.15" cx="5.04" fill="none" />
      <g stroke="black" cy="120.24" r="2.088" stroke-width="1.44" id="162" gorn="0.2.0.16" cx="5.04" fill="none" />
      <g stroke="black" cy="127.44" r="2.088" stroke-width="1.44" id="163" gorn="0.2.0.17" cx="5.04" fill="none" />
      <g stroke="black" cy="134.64" r="2.088" stroke-width="1.44" id="164" gorn="0.2.0.18" cx="5.04" fill="none" />
      <g stroke="black" cy="141.84" r="2.088" stroke-width="1.44" id="165" gorn="0.2.0.19" cx="5.04" fill="none" />
      <g stroke="black" cy="5.04" r="2.088" stroke-width="1.44" id="166" gorn="0.2.0.20" cx="5.04" fill="none" />
      <g stroke="black" cy="12.24" r="2.088" stroke-width="1.44" id="167" gorn="0.2.0.21" cx="5.04" fill="none" />
      <g stroke="black" cy="19.44" r="2.088" stroke-width="1.44" id="168" gorn="0.2.0.22" cx="5.04" fill="none" />
      <g stroke="black" cy="26.64" r="2.088" stroke-width="1.44" id="169" gorn="0.2.0.23" cx="5.04" fill="none" />
      <g stroke="black" cy="33.84" r="2.088" stroke-width="1.44" id="170" gorn="0.2.0.24" cx="5.04" fill="none" />
      <g stroke="black" cy="41.04" r="2.088" stroke-width="1.44" id="171" gorn="0.2.0.25" cx="5.04" fill="none" />
      <g stroke="black" cy="48.24" r="2.088" stroke-width="1.44" id="172" gorn="0.2.0.26" cx="5.04" fill="none" />
      <g stroke="black" cy="55.44" r="2.088" stroke-width="1.44" id="173" gorn="0.2.0.27" cx="5.04" fill="none" />
      <g stroke="black" cy="62.64" r="2.088" stroke-width="1.44" id="174" gorn="0.2.0.28" cx="5.04" fill="none" />
      <g stroke="black" cy="69.84" r="2.088" stroke-width="1.44" id="175" gorn="0.2.0.29" cx="5.04" fill="none" />
      <g stroke="black" cy="77.04" r="2.088" stroke-width="1.44" id="176" gorn="0.2.0.30" cx="5.04" fill="none" />
      <g stroke="black" cy="84.24" r="2.088" stroke-width="1.44" id="177" gorn="0.2.0.31" cx="5.04" fill="none" />
      <g stroke="black" cy="91.44" r="2.088" stroke-width="1.44" id="178" gorn="0.2.0.32" cx="5.04" fill="none" />
      <g stroke="black" cy="98.64" r="2.088" stroke-width="1.44" id="179" gorn="0.2.0.33" cx="5.04" fill="none" />
      <g stroke="black" cy="105.84" r="2.088" stroke-width="1.44" id="180" gorn="0.2.0.34" cx="5.04" fill="none" />
      <g stroke="black" cy="113.04" r="2.088" stroke-width="1.44" id="181" gorn="0.2.0.35" cx="5.04" fill="none" />
      <g stroke="black" cy="120.24" r="2.088" stroke-width="1.44" id="182" gorn="0.2.0.36" cx="5.04" fill="none" />
      <g stroke="black" cy="127.44" r="2.088" stroke-width="1.44" id="183" gorn="0.2.0.37" cx="5.04" fill="none" />
      <g stroke="black" cy="134.64" r="2.088" stroke-width="1.44" id="184" gorn="0.2.0.38" cx="5.04" fill="none" />
      <g stroke="black" cy="141.84" r="2.088" stroke-width="1.44" id="185" gorn="0.2.0.39" cx="5.04" fill="none" />
      <g stroke="black" cy="141.84" r="2.088" stroke-width="1.44" id="186" gorn="0.2.0.40" cx="12.24" fill="none" />
      <g stroke="black" cy="134.64" r="2.088" stroke-width="1.44" id="187" gorn="0.2.0.41" cx="12.24" fill="none" />
      <g stroke="black" cy="127.44" r="2.088" stroke-width="1.44" id="188" gorn="0.2.0.42" cx="12.24" fill="none" />
      <g stroke="black" cy="120.24" r="2.088" stroke-width="1.44" id="189" gorn="0.2.0.43" cx="12.24" fill="none" />
      <g stroke="black" cy="113.04" r="2.088" stroke-width="1.44" id="190" gorn="0.2.0.44" cx="12.24" fill="none" />
      <g stroke="black" cy="105.84" r="2.088" stroke-width="1.44" id="191" gorn="0.2.0.45" cx="12.24" fill="none" />
      <g stroke="black" cy="98.64" r="2.088" stroke-width="1.44" id="192" gorn="0.2.0.46" cx="12.24" fill="none" />
      <g stroke="black" cy="91.44" r="2.088" stroke-width="1.44" id="193" gorn="0.2.0.47" cx="12.24" fill="none" />
      <g stroke="black" cy="84.24" r="2.088" stroke-width="1.44" id="194" gorn="0.2.0.48" cx="12.24" fill="none" />
      <g stroke="black" cy="77.04" r="2.088" stroke-width="1.44" id="195" gorn="0.2.0.49" cx="12.24" fill="none" />
      <g stroke="black" cy="69.84" r="2.088" stroke-width="1.44" id="196" gorn="0.2.0.50" cx="12.24" fill="none" />
      <g stroke="black" cy="62.64" r="2.088" stroke-width="1.44" id="197" gorn="0.2.0.51" cx="12.24" fill="none" />
      <g stroke="black" cy="55.44" r="2.088" stroke-width="1.44" id="198" gorn="0.2.0.52" cx="12.24" fill="none" />
      <g stroke="black" cy="48.24" r="2.088" stroke-width="1.44" id="199" gorn="0.2.0.53" cx="12.24" fill="none" />
      <g stroke="black" cy="41.04" r="2.088" stroke-width="1.44" id="200" gorn="0.2.0.54" cx="12.24" fill="none" />
      <g stroke="black" cy="33.84" r="2.088" stroke-width="1.44" id="201" gorn="0.2.0.55" cx="12.24" fill="none" />
      <g stroke="black" cy="26.64" r="2.088" stroke-width="1.44" id="202" gorn="0.2.0.56" cx="12.24" fill="none" />
      <g stroke="black" cy="19.44" r="2.088" stroke-width="1.44" id="203" gorn="0.2.0.57" cx="12.24" fill="none" />
      <g stroke="black" cy="12.24" r="2.088" stroke-width="1.44" id="204" gorn="0.2.0.58" cx="12.24" fill="none" />
      <g stroke="black" cy="5.04" r="2.088" stroke-width="1.44" id="205" gorn="0.2.0.59" cx="12.24" fill="none" />
     </g>
    </g>
   </g>
  </g>
  <g partID="854344602">
   <g transform="translate(90.2359,174.283)">
    <g transform="matrix(0,1,-1,0,0,0)">
     <g id="copper1" >
      <g id="copper0" >
       <g stroke="black" cy="5.04" r="2.088" stroke-width="1.44" id="206" cx="5.04" fill="none" />
       <g stroke="black" cy="12.24" r="2.088" stroke-width="1.44" id="207" cx="5.04" fill="none" />
       <g stroke="black" cy="19.44" r="2.088" stroke-width="1.44" id="208" cx="5.04" fill="none" />
      </g>
     </g>
    </g>
   </g>
  </g>
 </g>
</svg>
