<?xml version='1.0' encoding='UTF-8' standalone='no'?>
<!-- Created with Fritzing (http://www.fritzing.org/) -->
<svg xmlns="http://www.w3.org/2000/svg" y="0in" viewBox="0 0 221.206 186.583" x="0in" version="1.2" xmlns:svg="http://www.w3.org/2000/svg" baseProfile="tiny" width="3.07231in"  height="2.59143in">
 <g transform="matrix(-1, 0, 0, 1, 221.206, 0)">
  <g partID="57642">
   <g id="silkscreen0">
    <rect y="0.288" stroke="black" stroke-width="0.576" x="0.288" width="220.63" fill="none" height="186.007"/>
   </g>
  </g>
  <g partID="57640">
   <g id="board">
    <rect y="0.288" stroke="black" stroke-width="0.5" x="0.288" fill-opacity="0.5" id="boardoutline" width="220.63" fill="none" height="186.007"/>
   </g>
  </g>
  <g partID="145410">
   <g transform="translate(20.4557,-20.4816)">
    <g id="board"/>
   </g>
  </g>
  <g partID="854335990">
   <g transform="translate(22.1234,5.2604)">
    <g transform="matrix(0,1,-1,0,0,0)">
     <g id="board"/>
    </g>
   </g>
  </g>
  <g partID="57642">
   <g id="silkscreen0">
    <rect y="0.288" stroke="black" stroke-width="0.576" x="0.288" width="220.63" fill="none" height="186.007"/>
   </g>
  </g>
  <g partID="145412">
   <g transform="translate(20.4557,-20.4816)">
    <g id="silkscreen0">
     <rect y="0.288" stroke="black" stroke-width="0.576" x="0.288" width="70.2901" fill="none" height="98.6366"/>
    </g>
   </g>
  </g>
  <g partID="854335992">
   <g transform="translate(22.1234,5.2604)">
    <g transform="matrix(0,1,-1,0,0,0)">
     <g id="silkscreen0">
      <rect y="0.288" stroke="black" stroke-width="0.576" x="0.288" width="183.676" fill="none" height="84.4634"/>
     </g>
    </g>
   </g>
  </g>
  <g partID="67310">
   <g transform="translate(146.396,182.923)">
    <g transform="matrix(-1,0,0,-1,0,0)">
     <g id="copper0">
      <circle stroke="white" cy="10.8" stroke-width="1.944" r="1.908" id="connector16pad" fill="white" cx="3.6"/>
      <rect y="8.892" stroke="white" x="1.692" stroke-width="1.944" width="3.814" fill="white" height="3.816"/>
      <circle stroke="white" cy="18" stroke-width="1.944" r="1.908" id="connector17pad" fill="white" cx="3.6"/>
      <circle stroke="white" cy="25.2" stroke-width="1.944" r="1.908" id="connector18pad" fill="white" cx="3.6"/>
      <circle stroke="white" cy="32.4" stroke-width="1.944" r="1.908" id="connector19pad" fill="white" cx="3.6"/>
      <circle stroke="white" cy="39.6" stroke-width="1.944" r="1.908" id="connector20pad" fill="white" cx="3.6"/>
      <circle stroke="white" cy="46.8" stroke-width="1.944" r="1.908" id="connector21pad" fill="white" cx="3.6"/>
      <circle stroke="white" cy="54" stroke-width="1.944" r="1.908" id="connector22pad" fill="white" cx="3.6"/>
      <circle stroke="white" cy="61.2" stroke-width="1.944" r="1.908" id="connector23pad" fill="white" cx="3.6"/>
      <circle stroke="white" cy="68.4" stroke-width="1.944" r="1.908" id="connector24pad" fill="white" cx="3.6"/>
      <circle stroke="white" cy="75.6" stroke-width="1.944" r="1.908" id="connector25pad" fill="white" cx="3.6"/>
      <circle stroke="white" cy="82.8" stroke-width="1.944" r="1.908" id="connector26pad" fill="white" cx="3.6"/>
      <circle stroke="white" cy="90" stroke-width="1.944" r="1.908" id="connector27pad" fill="white" cx="3.6"/>
      <circle stroke="white" cy="97.2" stroke-width="1.944" r="1.908" id="connector28pad" fill="white" cx="3.6"/>
      <circle stroke="white" cy="104.4" stroke-width="1.944" r="1.908" id="connector29pad" fill="white" cx="3.6"/>
      <circle stroke="white" cy="111.6" stroke-width="1.944" r="1.908" id="connector30pad" fill="white" cx="3.6"/>
      <circle stroke="white" cy="10.8" stroke-width="1.944" r="1.908" id="connector31pad" fill="white" cx="46.8"/>
      <circle stroke="white" cy="18" stroke-width="1.944" r="1.908" id="connector32pad" fill="white" cx="46.8"/>
      <circle stroke="white" cy="25.2" stroke-width="1.944" r="1.908" id="connector33pad" fill="white" cx="46.8"/>
      <circle stroke="white" cy="32.4" stroke-width="1.944" r="1.908" id="connector34pad" fill="white" cx="46.8"/>
      <circle stroke="white" cy="39.6" stroke-width="1.944" r="1.908" id="connector35pad" fill="white" cx="46.8"/>
      <circle stroke="white" cy="46.8" stroke-width="1.944" r="1.908" id="connector36pad" fill="white" cx="46.8"/>
      <circle stroke="white" cy="54" stroke-width="1.944" r="1.908" id="connector37pad" fill="white" cx="46.8"/>
      <circle stroke="white" cy="61.2" stroke-width="1.944" r="1.908" id="connector38pad" fill="white" cx="46.8"/>
      <circle stroke="white" cy="68.4" stroke-width="1.944" r="1.908" id="connector39pad" fill="white" cx="46.8"/>
      <circle stroke="white" cy="75.6" stroke-width="1.944" r="1.908" id="connector40pad" fill="white" cx="46.8"/>
      <circle stroke="white" cy="82.8" stroke-width="1.944" r="1.908" id="connector41pad" fill="white" cx="46.8"/>
      <circle stroke="white" cy="90" stroke-width="1.944" r="1.908" id="connector42pad" fill="white" cx="46.8"/>
      <circle stroke="white" cy="97.2" stroke-width="1.944" r="1.908" id="connector43pad" fill="white" cx="46.8"/>
      <circle stroke="white" cy="104.4" stroke-width="1.944" r="1.908" id="connector44pad" fill="white" cx="46.8"/>
      <circle stroke="white" cy="111.6" stroke-width="1.944" r="1.908" id="connector45pad" fill="white" cx="46.8"/>
     </g>
    </g>
   </g>
  </g>
  <g partID="76840">
   <g transform="translate(182.396,51.1266)">
    <g transform="matrix(-1,0,0,-1,0,0)">
     <g id="copper0">
      <circle stroke="white" cy="8.208" r="1.98" stroke-width="2.16" id="connector0pin" cx="3.6" fill="white"/>
      <circle stroke="white" cy="8.208" r="1.98" stroke-width="2.16" id="connector1pin" cx="10.8" fill="white"/>
      <circle stroke="white" cy="8.208" r="1.98" stroke-width="2.16" id="connector2pin" cx="18" fill="white"/>
     </g>
    </g>
   </g>
  </g>
  <g partID="76830">
   <g transform="translate(182.396,72.3306)">
    <g transform="matrix(-1,0,0,-1,0,0)">
     <g id="copper0">
      <circle stroke="white" cy="8.208" r="1.98" stroke-width="2.16" id="connector0pin" cx="3.6" fill="white"/>
      <circle stroke="white" cy="8.208" r="1.98" stroke-width="2.16" id="connector1pin" cx="10.8" fill="white"/>
      <circle stroke="white" cy="8.208" r="1.98" stroke-width="2.16" id="connector2pin" cx="18" fill="white"/>
     </g>
    </g>
   </g>
  </g>
  <g partID="68780">
   <g transform="translate(182.396,137.131)">
    <g transform="matrix(-1,0,0,-1,0,0)">
     <g id="copper0">
      <circle stroke="white" cy="8.208" r="1.98" stroke-width="2.16" id="connector0pin" cx="3.6" fill="white"/>
      <circle stroke="white" cy="8.208" r="1.98" stroke-width="2.16" id="connector1pin" cx="10.8" fill="white"/>
      <circle stroke="white" cy="8.208" r="1.98" stroke-width="2.16" id="connector2pin" cx="18" fill="white"/>
     </g>
    </g>
   </g>
  </g>
  <g partID="67370">
   <g transform="translate(182.396,158.731)">
    <g transform="matrix(-1,0,0,-1,0,0)">
     <g id="copper0">
      <circle stroke="white" cy="8.208" r="1.98" stroke-width="2.16" id="connector0pin" cx="3.6" fill="white"/>
      <circle stroke="white" cy="8.208" r="1.98" stroke-width="2.16" id="connector1pin" cx="10.8" fill="white"/>
      <circle stroke="white" cy="8.208" r="1.98" stroke-width="2.16" id="connector2pin" cx="18" fill="white"/>
     </g>
    </g>
   </g>
  </g>
  <g partID="67510">
   <g transform="translate(22.5559,1.48259)">
    <g id="copper0">
     <rect y="2.952" stroke="white" stroke-width="2.16" x="2.952" id="square" width="4.176" fill="white" height="4.176"/>
     <circle stroke="white" cy="5.04" r="2.088" stroke-width="2.16" id="connector0pin" cx="5.04" fill="white"/>
     <circle stroke="white" cy="12.24" r="2.088" stroke-width="2.16" id="connector1pin" cx="5.04" fill="white"/>
     <circle stroke="white" cy="19.44" r="2.088" stroke-width="2.16" id="connector2pin" cx="5.04" fill="white"/>
     <circle stroke="white" cy="26.64" r="2.088" stroke-width="2.16" id="connector3pin" cx="5.04" fill="white"/>
     <circle stroke="white" cy="33.84" r="2.088" stroke-width="2.16" id="connector4pin" cx="5.04" fill="white"/>
     <circle stroke="white" cy="41.04" r="2.088" stroke-width="2.16" id="connector5pin" cx="5.04" fill="white"/>
     <circle stroke="white" cy="48.24" r="2.088" stroke-width="2.16" id="connector6pin" cx="5.04" fill="white"/>
     <circle stroke="white" cy="55.44" r="2.088" stroke-width="2.16" id="connector7pin" cx="5.04" fill="white"/>
    </g>
   </g>
  </g>
  <g partID="76860">
   <g transform="translate(189.596,34.7106)">
    <g id="copper0">
     <circle stroke="white" cy="8.208" r="1.98" stroke-width="2.16" id="connector0pin" cx="3.6" fill="white"/>
     <circle stroke="white" cy="8.208" r="1.98" stroke-width="2.16" id="connector1pin" cx="10.8" fill="white"/>
     <circle stroke="white" cy="8.208" r="1.98" stroke-width="2.16" id="connector2pin" cx="18" fill="white"/>
    </g>
   </g>
  </g>
  <g partID="76850">
   <g transform="translate(189.596,55.9146)">
    <g id="copper0">
     <circle stroke="white" cy="8.208" r="1.98" stroke-width="2.16" id="connector0pin" cx="3.6" fill="white"/>
     <circle stroke="white" cy="8.208" r="1.98" stroke-width="2.16" id="connector1pin" cx="10.8" fill="white"/>
     <circle stroke="white" cy="8.208" r="1.98" stroke-width="2.16" id="connector2pin" cx="18" fill="white"/>
    </g>
   </g>
  </g>
  <g partID="68870">
   <g transform="translate(189.596,120.715)">
    <g id="copper0">
     <circle stroke="white" cy="8.208" r="1.98" stroke-width="2.16" id="connector0pin" cx="3.6" fill="white"/>
     <circle stroke="white" cy="8.208" r="1.98" stroke-width="2.16" id="connector1pin" cx="10.8" fill="white"/>
     <circle stroke="white" cy="8.208" r="1.98" stroke-width="2.16" id="connector2pin" cx="18" fill="white"/>
    </g>
   </g>
  </g>
  <g partID="68840">
   <g transform="translate(189.596,142.315)">
    <g id="copper0">
     <circle stroke="white" cy="8.208" r="1.98" stroke-width="2.16" id="connector0pin" cx="3.6" fill="white"/>
     <circle stroke="white" cy="8.208" r="1.98" stroke-width="2.16" id="connector1pin" cx="10.8" fill="white"/>
     <circle stroke="white" cy="8.208" r="1.98" stroke-width="2.16" id="connector2pin" cx="18" fill="white"/>
    </g>
   </g>
  </g>
  <g partID="76900">
   <g transform="translate(190.172,74.9226)">
    <g id="copper0">
     <rect y="1.368" stroke="white" stroke-width="2.16" x="0.72" width="4.464" fill="white" height="4.464"/>
     <circle stroke="white" cy="3.6" r="2.232" stroke-width="2.16" id="connector0pin" cx="3.024" fill="white"/>
     <circle stroke="white" cy="3.6" r="2.232" stroke-width="2.16" id="connector1pin" cx="24.48" fill="white"/>
    </g>
   </g>
  </g>
  <g partID="76890">
   <g transform="translate(154.172,74.9226)">
    <g id="copper0">
     <rect y="1.368" stroke="white" stroke-width="2.16" x="0.72" width="4.464" fill="white" height="4.464"/>
     <circle stroke="white" cy="3.6" r="2.232" stroke-width="2.16" id="connector0pin" cx="3.024" fill="white"/>
     <circle stroke="white" cy="3.6" r="2.232" stroke-width="2.16" id="connector1pin" cx="24.48" fill="white"/>
    </g>
   </g>
  </g>
  <g partID="76880">
   <g transform="translate(154.172,24.9186)">
    <g id="copper0">
     <rect y="1.368" stroke="white" stroke-width="2.16" x="0.72" width="4.464" fill="white" height="4.464"/>
     <circle stroke="white" cy="3.6" r="2.232" stroke-width="2.16" id="connector0pin" cx="3.024" fill="white"/>
     <circle stroke="white" cy="3.6" r="2.232" stroke-width="2.16" id="connector1pin" cx="24.48" fill="white"/>
    </g>
   </g>
  </g>
  <g partID="76870">
   <g transform="translate(190.172,24.9186)">
    <g id="copper0">
     <rect y="1.368" stroke="white" stroke-width="2.16" x="0.72" width="4.464" fill="white" height="4.464"/>
     <circle stroke="white" cy="3.6" r="2.232" stroke-width="2.16" id="connector0pin" cx="3.024" fill="white"/>
     <circle stroke="white" cy="3.6" r="2.232" stroke-width="2.16" id="connector1pin" cx="24.48" fill="white"/>
    </g>
   </g>
  </g>
  <g partID="69020">
   <g transform="translate(190.172,110.923)">
    <g id="copper0">
     <rect y="1.368" stroke="white" stroke-width="2.16" x="0.72" width="4.464" fill="white" height="4.464"/>
     <circle stroke="white" cy="3.6" r="2.232" stroke-width="2.16" id="connector0pin" cx="3.024" fill="white"/>
     <circle stroke="white" cy="3.6" r="2.232" stroke-width="2.16" id="connector1pin" cx="24.48" fill="white"/>
    </g>
   </g>
  </g>
  <g partID="69000">
   <g transform="translate(190.172,161.719)">
    <g id="copper0">
     <rect y="1.368" stroke="white" stroke-width="2.16" x="0.72" width="4.464" fill="white" height="4.464"/>
     <circle stroke="white" cy="3.6" r="2.232" stroke-width="2.16" id="connector0pin" cx="3.024" fill="white"/>
     <circle stroke="white" cy="3.6" r="2.232" stroke-width="2.16" id="connector1pin" cx="24.48" fill="white"/>
    </g>
   </g>
  </g>
  <g partID="68980">
   <g transform="translate(154.172,110.923)">
    <g id="copper0">
     <rect y="1.368" stroke="white" stroke-width="2.16" x="0.72" width="4.464" fill="white" height="4.464"/>
     <circle stroke="white" cy="3.6" r="2.232" stroke-width="2.16" id="connector0pin" cx="3.024" fill="white"/>
     <circle stroke="white" cy="3.6" r="2.232" stroke-width="2.16" id="connector1pin" cx="24.48" fill="white"/>
    </g>
   </g>
  </g>
  <g partID="68930">
   <g transform="translate(154.172,161.719)">
    <g id="copper0">
     <rect y="1.368" stroke="white" stroke-width="2.16" x="0.72" width="4.464" fill="white" height="4.464"/>
     <circle stroke="white" cy="3.6" r="2.232" stroke-width="2.16" id="connector0pin" cx="3.024" fill="white"/>
     <circle stroke="white" cy="3.6" r="2.232" stroke-width="2.16" id="connector1pin" cx="24.48" fill="white"/>
    </g>
   </g>
  </g>
  <g partID="76940">
   <g transform="translate(168.896,82.6266)">
    <g transform="matrix(1,0,0,1,0,0)">
     <g id="copper0">
      <g id="copper1">
       <!-- <rect width="55" x="10" y="10" fill="none" height="55" stroke="rgb(255, 191, 0)" stroke-width="20" /> -->
       <circle stroke="white" cy="2.7" r="1.98" stroke-width="2.16" id="connector0pin" fill="white" cx="2.7"/>
       <circle stroke="white" cy="2.7" r="1.98" stroke-width="2.16" id="connector1pin" fill="white" cx="17.1"/>
      </g>
     </g>
    </g>
   </g>
  </g>
  <g partID="76930">
   <g transform="translate(183.296,83.0226)">
    <g transform="matrix(1,0,0,1,0,0)">
     <g id="copper0">
      <g id="copper1">
       <!-- <rect width="55" x="10" y="10" fill="none" height="55" stroke="rgb(255, 191, 0)" stroke-width="20" /> -->
       <circle stroke="white" cy="2.7" r="1.98" stroke-width="2.16" id="connector0pin" fill="white" cx="2.7"/>
       <circle stroke="white" cy="2.7" r="1.98" stroke-width="2.16" id="connector1pin" fill="white" cx="17.1"/>
      </g>
     </g>
    </g>
   </g>
  </g>
  <g partID="76920">
   <g transform="translate(168.896,18.6186)">
    <g transform="matrix(1,0,0,1,0,0)">
     <g id="copper0">
      <g id="copper1">
       <!-- <rect width="55" x="10" y="10" fill="none" height="55" stroke="rgb(255, 191, 0)" stroke-width="20" /> -->
       <circle stroke="white" cy="2.7" r="1.98" stroke-width="2.16" id="connector0pin" fill="white" cx="2.7"/>
       <circle stroke="white" cy="2.7" r="1.98" stroke-width="2.16" id="connector1pin" fill="white" cx="17.1"/>
      </g>
     </g>
    </g>
   </g>
  </g>
  <g partID="76910">
   <g transform="translate(183.296,18.6186)">
    <g transform="matrix(1,0,0,1,0,0)">
     <g id="copper0">
      <g id="copper1">
       <!-- <rect width="55" x="10" y="10" fill="none" height="55" stroke="rgb(255, 191, 0)" stroke-width="20" /> -->
       <circle stroke="white" cy="2.7" r="1.98" stroke-width="2.16" id="connector0pin" fill="white" cx="2.7"/>
       <circle stroke="white" cy="2.7" r="1.98" stroke-width="2.16" id="connector1pin" fill="white" cx="17.1"/>
      </g>
     </g>
    </g>
   </g>
  </g>
  <g partID="70890">
   <g transform="translate(168.896,104.623)">
    <g transform="matrix(1,0,0,1,0,0)">
     <g id="copper0">
      <g id="copper1">
       <!-- <rect width="55" x="10" y="10" fill="none" height="55" stroke="rgb(255, 191, 0)" stroke-width="20" /> -->
       <circle stroke="white" cy="2.7" r="1.98" stroke-width="2.16" id="connector0pin" fill="white" cx="2.7"/>
       <circle stroke="white" cy="2.7" r="1.98" stroke-width="2.16" id="connector1pin" fill="white" cx="17.1"/>
      </g>
     </g>
    </g>
   </g>
  </g>
  <g partID="70880">
   <g transform="translate(183.296,104.623)">
    <g transform="matrix(1,0,0,1,0,0)">
     <g id="copper0">
      <g id="copper1">
       <!-- <rect width="55" x="10" y="10" fill="none" height="55" stroke="rgb(255, 191, 0)" stroke-width="20" /> -->
       <circle stroke="white" cy="2.7" r="1.98" stroke-width="2.16" id="connector0pin" fill="white" cx="2.7"/>
       <circle stroke="white" cy="2.7" r="1.98" stroke-width="2.16" id="connector1pin" fill="white" cx="17.1"/>
      </g>
     </g>
    </g>
   </g>
  </g>
  <g partID="70650">
   <g transform="translate(183.296,169.819)">
    <g transform="matrix(1,0,0,1,0,0)">
     <g id="copper0">
      <g id="copper1">
       <!-- <rect width="55" x="10" y="10" fill="none" height="55" stroke="rgb(255, 191, 0)" stroke-width="20" /> -->
       <circle stroke="white" cy="2.7" r="1.98" stroke-width="2.16" id="connector0pin" fill="white" cx="2.7"/>
       <circle stroke="white" cy="2.7" r="1.98" stroke-width="2.16" id="connector1pin" fill="white" cx="17.1"/>
      </g>
     </g>
    </g>
   </g>
  </g>
  <g partID="70600">
   <g transform="translate(168.896,169.423)">
    <g transform="matrix(1,0,0,1,0,0)">
     <g id="copper0">
      <g id="copper1">
       <!-- <rect width="55" x="10" y="10" fill="none" height="55" stroke="rgb(255, 191, 0)" stroke-width="20" /> -->
       <circle stroke="white" cy="2.7" r="1.98" stroke-width="2.16" id="connector0pin" fill="white" cx="2.7"/>
       <circle stroke="white" cy="2.7" r="1.98" stroke-width="2.16" id="connector1pin" fill="white" cx="17.1"/>
      </g>
     </g>
    </g>
   </g>
  </g>
  <g partID="76950">
   <g transform="translate(180.956,44.6826)">
    <g id="copper0">
     <circle stroke="white" cy="5.04" r="2.088" stroke-width="2.16" id="connector0pin" cx="5.04" fill="white"/>
     <circle stroke="white" cy="12.24" r="2.088" stroke-width="2.16" id="connector1pin" cx="5.04" fill="white"/>
    </g>
   </g>
  </g>
  <g partID="71140">
   <g transform="translate(180.956,131.083)">
    <g id="copper0">
     <circle stroke="white" cy="5.04" r="2.088" stroke-width="2.16" id="connector0pin" cx="5.04" fill="white"/>
     <circle stroke="white" cy="12.24" r="2.088" stroke-width="2.16" id="connector1pin" cx="5.04" fill="white"/>
    </g>
   </g>
  </g>
  <g partID="116270">
   <g transform="translate(43.1983,155.302)">
    <g transform="matrix(0,1,-1,0,0,0)">
     <g id="copper0">
      <circle stroke="white" cy="15.6024" r="1.98" stroke-width="2.16" id="connector0pad" cx="20.8462" fill="white"/>
      <circle stroke="white" cy="15.6024" r="1.98" stroke-width="2.16" id="connector1pad" cx="2.42064" fill="white"/>
      <circle stroke="white" cy="2.84616" r="1.98" stroke-width="2.16" id="connector2pad" cx="20.8462" fill="white"/>
      <circle stroke="white" cy="2.84616" r="1.98" stroke-width="2.16" id="connector3pad" cx="2.42064" fill="white"/>
     </g>
    </g>
   </g>
  </g>
  <g partID="118440">
   <g transform="translate(51.3559,152.683)">
    <g id="copper0">
     <rect y="2.952" stroke="white" stroke-width="2.16" x="2.952" id="square" width="4.176" fill="white" height="4.176"/>
     <circle stroke="white" cy="5.04" r="2.088" stroke-width="2.16" id="connector0pin" cx="5.04" fill="white"/>
     <circle stroke="white" cy="12.24" r="2.088" stroke-width="2.16" id="connector1pin" cx="5.04" fill="white"/>
     <circle stroke="white" cy="19.44" r="2.088" stroke-width="2.16" id="connector2pin" cx="5.04" fill="white"/>
    </g>
   </g>
  </g>
  <g partID="126870">
   <g transform="translate(37.1023,80.8132)">
    <g id="copper0">
     <rect y="2.952" stroke="white" stroke-width="2.16" x="2.952" id="square" width="4.176" fill="white" height="4.176"/>
     <circle stroke="white" cy="5.04" r="2.088" stroke-width="2.16" id="connector0pin" cx="5.04" fill="white"/>
     <circle stroke="white" cy="12.24" r="2.088" stroke-width="2.16" id="connector1pin" cx="5.04" fill="white"/>
     <circle stroke="white" cy="19.44" r="2.088" stroke-width="2.16" id="connector2pin" cx="5.04" fill="white"/>
     <circle stroke="white" cy="26.64" r="2.088" stroke-width="2.16" id="connector3pin" cx="5.04" fill="white"/>
     <circle stroke="white" cy="33.84" r="2.088" stroke-width="2.16" id="connector4pin" cx="5.04" fill="white"/>
    </g>
   </g>
  </g>
  <g partID="135160">
   <g transform="translate(110.036,20.5626)">
    <g id="copper0">
     <rect y="5.58" stroke="white" x="1.98" stroke-width="2.16" id="rect11" width="3.96" fill="white" height="3.96"/>
     <circle stroke="white" cy="7.56" r="1.98" stroke-width="2.16" id="connector0pin" cx="3.96" fill="white"/>
     <circle stroke="white" cy="7.56" r="1.98" stroke-width="2.16" id="connector1pin" cx="11.16" fill="white"/>
    </g>
   </g>
  </g>
  <g partID="136480">
   <g transform="translate(111.103,54.0426)">
    <g transform="matrix(1,0,0,1,0,0)">
     <g id="copper0">
      <g id="copper1">
       <circle stroke="white" cy="2.88" r="1.8" stroke-width="2.16" id="connector0pin" cx="2.88" fill="white"/>
       <circle stroke="white" cy="2.88" r="1.8" stroke-width="2.16" id="connector1pin" cx="10.0933" fill="white"/>
      </g>
     </g>
    </g>
   </g>
  </g>
  <g partID="149600">
   <g transform="translate(73.3775,-21.65)">
    <g transform="matrix(0,1,-1,0,0,0)">
     <g id="copper0">
      <circle stroke="white" cy="9.35433" r="1.20473" stroke-width="0.861732" connectorname="H1" id="connector0pad" cx="12.0473" fill="white"/>
      <circle stroke="white" cy="21.8268" r="1.20473" stroke-width="0.861732" connectorname="H2" id="connector1pad" cx="12.0473" fill="white"/>
     </g>
    </g>
   </g>
  </g>
  <g partID="854340260">
   <g transform="translate(4.50928,170.636)">
    <g id="copper0">
     <circle stroke="white" cy="8.68658" r="5.66929" stroke-width="3.55465" id="nonconn0" fill="white" cx="8.68658"/>
    </g>
   </g>
  </g>
  <g partID="854340290">
   <g transform="translate(4.65569,5.16659)">
    <g id="copper0">
     <circle stroke="white" cy="8.68658" r="5.66929" stroke-width="3.55465" id="nonconn0" fill="white" cx="8.68658"/>
    </g>
   </g>
  </g>
  <g partID="854344580">
   <g transform="translate(133.436,1.48259)">
    <g transform="matrix(0,1,-1,0,0,0)">
     <g id="copper0">
      <circle stroke="white" cy="5.04" r="2.088" stroke-width="2.16" id="connector0pin" cx="5.04" fill="white"/>
      <circle stroke="white" cy="12.24" r="2.088" stroke-width="2.16" id="connector1pin" cx="5.04" fill="white"/>
      <circle stroke="white" cy="19.44" r="2.088" stroke-width="2.16" id="connector2pin" cx="5.04" fill="white"/>
     </g>
    </g>
   </g>
  </g>
  <g partID="854344600">
   <g transform="translate(90.2359,174.283)">
    <g transform="matrix(0,1,-1,0,0,0)">
     <g id="copper0">
      <circle stroke="white" cy="5.04" r="2.088" stroke-width="2.16" id="connector0pin" cx="5.04" fill="white"/>
      <circle stroke="white" cy="12.24" r="2.088" stroke-width="2.16" id="connector1pin" cx="5.04" fill="white"/>
      <circle stroke="white" cy="19.44" r="2.088" stroke-width="2.16" id="connector2pin" cx="5.04" fill="white"/>
     </g>
    </g>
   </g>
  </g>
  <g partID="854344870">
   <g transform="translate(1.10231,23.2132)">
    <g id="copper0" gorn="0.2.0">
     <circle stroke="white" cy="5.04" r="2.088" stroke-width="2.16" id="connector0pin" gorn="0.2.0.0" cx="5.04" fill="white"/>
     <circle stroke="white" cy="12.24" r="2.088" stroke-width="2.16" id="connector1pin" gorn="0.2.0.1" cx="5.04" fill="white"/>
     <circle stroke="white" cy="19.44" r="2.088" stroke-width="2.16" id="connector2pin" gorn="0.2.0.2" cx="5.04" fill="white"/>
     <circle stroke="white" cy="26.64" r="2.088" stroke-width="2.16" id="connector3pin" gorn="0.2.0.3" cx="5.04" fill="white"/>
     <circle stroke="white" cy="33.84" r="2.088" stroke-width="2.16" id="connector4pin" gorn="0.2.0.4" cx="5.04" fill="white"/>
     <circle stroke="white" cy="41.04" r="2.088" stroke-width="2.16" id="connector5pin" gorn="0.2.0.5" cx="5.04" fill="white"/>
     <circle stroke="white" cy="48.24" r="2.088" stroke-width="2.16" id="connector6pin" gorn="0.2.0.6" cx="5.04" fill="white"/>
     <circle stroke="white" cy="55.44" r="2.088" stroke-width="2.16" id="connector7pin" gorn="0.2.0.7" cx="5.04" fill="white"/>
     <circle stroke="white" cy="62.64" r="2.088" stroke-width="2.16" id="connector8pin" gorn="0.2.0.8" cx="5.04" fill="white"/>
     <circle stroke="white" cy="69.84" r="2.088" stroke-width="2.16" id="connector9pin" gorn="0.2.0.9" cx="5.04" fill="white"/>
     <circle stroke="white" cy="77.04" r="2.088" stroke-width="2.16" id="connector10pin" gorn="0.2.0.10" cx="5.04" fill="white"/>
     <circle stroke="white" cy="84.24" r="2.088" stroke-width="2.16" id="connector11pin" gorn="0.2.0.11" cx="5.04" fill="white"/>
     <circle stroke="white" cy="91.44" r="2.088" stroke-width="2.16" id="connector12pin" gorn="0.2.0.12" cx="5.04" fill="white"/>
     <circle stroke="white" cy="98.64" r="2.088" stroke-width="2.16" id="connector13pin" gorn="0.2.0.13" cx="5.04" fill="white"/>
     <circle stroke="white" cy="105.84" r="2.088" stroke-width="2.16" id="connector14pin" gorn="0.2.0.14" cx="5.04" fill="white"/>
     <circle stroke="white" cy="113.04" r="2.088" stroke-width="2.16" id="connector15pin" gorn="0.2.0.15" cx="5.04" fill="white"/>
     <circle stroke="white" cy="120.24" r="2.088" stroke-width="2.16" id="connector16pin" gorn="0.2.0.16" cx="5.04" fill="white"/>
     <circle stroke="white" cy="127.44" r="2.088" stroke-width="2.16" id="connector17pin" gorn="0.2.0.17" cx="5.04" fill="white"/>
     <circle stroke="white" cy="134.64" r="2.088" stroke-width="2.16" id="connector18pin" gorn="0.2.0.18" cx="5.04" fill="white"/>
     <circle stroke="white" cy="141.84" r="2.088" stroke-width="2.16" id="connector19pin" gorn="0.2.0.19" cx="5.04" fill="white"/>
     <circle stroke="white" cy="5.04" r="2.088" stroke-width="2.16" id="connector0pin" gorn="0.2.0.20" cx="5.04" fill="white"/>
     <circle stroke="white" cy="12.24" r="2.088" stroke-width="2.16" id="connector1pin" gorn="0.2.0.21" cx="5.04" fill="white"/>
     <circle stroke="white" cy="19.44" r="2.088" stroke-width="2.16" id="connector2pin" gorn="0.2.0.22" cx="5.04" fill="white"/>
     <circle stroke="white" cy="26.64" r="2.088" stroke-width="2.16" id="connector3pin" gorn="0.2.0.23" cx="5.04" fill="white"/>
     <circle stroke="white" cy="33.84" r="2.088" stroke-width="2.16" id="connector4pin" gorn="0.2.0.24" cx="5.04" fill="white"/>
     <circle stroke="white" cy="41.04" r="2.088" stroke-width="2.16" id="connector5pin" gorn="0.2.0.25" cx="5.04" fill="white"/>
     <circle stroke="white" cy="48.24" r="2.088" stroke-width="2.16" id="connector6pin" gorn="0.2.0.26" cx="5.04" fill="white"/>
     <circle stroke="white" cy="55.44" r="2.088" stroke-width="2.16" id="connector7pin" gorn="0.2.0.27" cx="5.04" fill="white"/>
     <circle stroke="white" cy="62.64" r="2.088" stroke-width="2.16" id="connector8pin" gorn="0.2.0.28" cx="5.04" fill="white"/>
     <circle stroke="white" cy="69.84" r="2.088" stroke-width="2.16" id="connector9pin" gorn="0.2.0.29" cx="5.04" fill="white"/>
     <circle stroke="white" cy="77.04" r="2.088" stroke-width="2.16" id="connector10pin" gorn="0.2.0.30" cx="5.04" fill="white"/>
     <circle stroke="white" cy="84.24" r="2.088" stroke-width="2.16" id="connector11pin" gorn="0.2.0.31" cx="5.04" fill="white"/>
     <circle stroke="white" cy="91.44" r="2.088" stroke-width="2.16" id="connector12pin" gorn="0.2.0.32" cx="5.04" fill="white"/>
     <circle stroke="white" cy="98.64" r="2.088" stroke-width="2.16" id="connector13pin" gorn="0.2.0.33" cx="5.04" fill="white"/>
     <circle stroke="white" cy="105.84" r="2.088" stroke-width="2.16" id="connector14pin" gorn="0.2.0.34" cx="5.04" fill="white"/>
     <circle stroke="white" cy="113.04" r="2.088" stroke-width="2.16" id="connector15pin" gorn="0.2.0.35" cx="5.04" fill="white"/>
     <circle stroke="white" cy="120.24" r="2.088" stroke-width="2.16" id="connector16pin" gorn="0.2.0.36" cx="5.04" fill="white"/>
     <circle stroke="white" cy="127.44" r="2.088" stroke-width="2.16" id="connector17pin" gorn="0.2.0.37" cx="5.04" fill="white"/>
     <circle stroke="white" cy="134.64" r="2.088" stroke-width="2.16" id="connector18pin" gorn="0.2.0.38" cx="5.04" fill="white"/>
     <circle stroke="white" cy="141.84" r="2.088" stroke-width="2.16" id="connector19pin" gorn="0.2.0.39" cx="5.04" fill="white"/>
     <circle stroke="white" cy="141.84" r="2.088" stroke-width="2.16" id="connector20pin" gorn="0.2.0.40" cx="12.24" fill="white"/>
     <circle stroke="white" cy="134.64" r="2.088" stroke-width="2.16" id="connector21pin" gorn="0.2.0.41" cx="12.24" fill="white"/>
     <circle stroke="white" cy="127.44" r="2.088" stroke-width="2.16" id="connector22pin" gorn="0.2.0.42" cx="12.24" fill="white"/>
     <circle stroke="white" cy="120.24" r="2.088" stroke-width="2.16" id="connector23pin" gorn="0.2.0.43" cx="12.24" fill="white"/>
     <circle stroke="white" cy="113.04" r="2.088" stroke-width="2.16" id="connector24pin" gorn="0.2.0.44" cx="12.24" fill="white"/>
     <circle stroke="white" cy="105.84" r="2.088" stroke-width="2.16" id="connector25pin" gorn="0.2.0.45" cx="12.24" fill="white"/>
     <circle stroke="white" cy="98.64" r="2.088" stroke-width="2.16" id="connector26pin" gorn="0.2.0.46" cx="12.24" fill="white"/>
     <circle stroke="white" cy="91.44" r="2.088" stroke-width="2.16" id="connector27pin" gorn="0.2.0.47" cx="12.24" fill="white"/>
     <circle stroke="white" cy="84.24" r="2.088" stroke-width="2.16" id="connector28pin" gorn="0.2.0.48" cx="12.24" fill="white"/>
     <circle stroke="white" cy="77.04" r="2.088" stroke-width="2.16" id="connector29pin" gorn="0.2.0.49" cx="12.24" fill="white"/>
     <circle stroke="white" cy="69.84" r="2.088" stroke-width="2.16" id="connector30pin" gorn="0.2.0.50" cx="12.24" fill="white"/>
     <circle stroke="white" cy="62.64" r="2.088" stroke-width="2.16" id="connector31pin" gorn="0.2.0.51" cx="12.24" fill="white"/>
     <circle stroke="white" cy="55.44" r="2.088" stroke-width="2.16" id="connector32pin" gorn="0.2.0.52" cx="12.24" fill="white"/>
     <circle stroke="white" cy="48.24" r="2.088" stroke-width="2.16" id="connector33pin" gorn="0.2.0.53" cx="12.24" fill="white"/>
     <circle stroke="white" cy="41.04" r="2.088" stroke-width="2.16" id="connector34pin" gorn="0.2.0.54" cx="12.24" fill="white"/>
     <circle stroke="white" cy="33.84" r="2.088" stroke-width="2.16" id="connector35pin" gorn="0.2.0.55" cx="12.24" fill="white"/>
     <circle stroke="white" cy="26.64" r="2.088" stroke-width="2.16" id="connector36pin" gorn="0.2.0.56" cx="12.24" fill="white"/>
     <circle stroke="white" cy="19.44" r="2.088" stroke-width="2.16" id="connector37pin" gorn="0.2.0.57" cx="12.24" fill="white"/>
     <circle stroke="white" cy="12.24" r="2.088" stroke-width="2.16" id="connector38pin" gorn="0.2.0.58" cx="12.24" fill="white"/>
     <circle stroke="white" cy="5.04" r="2.088" stroke-width="2.16" id="connector39pin" gorn="0.2.0.59" cx="12.24" fill="white"/>
    </g>
   </g>
  </g>
 </g>
</svg>
